<svg width="60" height="64" viewBox="0 0 60 64" fill="none" xmlns="http://www.w3.org/2000/svg">
<path fill-rule="evenodd" clip-rule="evenodd" d="M39.1813 15.4471C39.2146 15.4837 39.246 15.5236 39.2734 15.5642L39.2748 15.5662L39.2778 15.5706L39.288 15.5859L39.3242 15.6408C39.3553 15.688 39.3998 15.7564 39.4557 15.8442C39.5675 16.0199 39.7255 16.2738 39.9142 16.5932C40.291 17.2312 40.7929 18.1342 41.2952 19.1994C42.288 21.304 43.3337 24.1462 43.3337 26.854C43.3337 29.9175 41.0943 31.6159 39.1259 32.4934C38.1344 32.9353 37.1555 33.1998 36.4324 33.3542C36.2929 33.3839 36.162 33.4098 36.0414 33.4322C34.4557 34.7907 32.3329 35.6212 30.0003 35.6212C27.186 35.6212 24.6772 34.4124 23.0485 32.5258L22.9965 32.5217C22.8187 32.507 22.571 32.4808 22.2763 32.4336C21.6923 32.3404 20.8962 32.1609 20.086 31.8115C19.2752 31.4617 18.4138 30.9256 17.7538 30.1031C17.0834 29.268 16.667 28.1939 16.667 26.854C16.667 24.3203 18.0025 21.4409 19.2287 19.3029C19.8551 18.2104 20.4802 17.2658 20.9488 16.5942C21.1833 16.2579 21.3794 15.9888 21.5179 15.8025C21.5872 15.7094 21.6421 15.6368 21.6802 15.5868L21.7161 15.5401L21.7293 15.5208C21.7532 15.4862 21.7857 15.4408 21.8271 15.3861C21.9101 15.2768 22.0294 15.1298 22.1887 14.9582C22.507 14.615 22.9867 14.1708 23.6552 13.7309C25.0039 12.8434 27.0818 12 30.0611 12C33.0334 12 35.2967 12.8387 36.8215 13.6878C37.5821 14.1113 38.1589 14.5371 38.551 14.8628C38.7473 15.0258 38.898 15.1643 39.003 15.2658C39.0556 15.3166 39.0968 15.3582 39.1265 15.389C39.1414 15.4044 39.1535 15.4172 39.1628 15.4271L39.1746 15.4397L39.1788 15.4444L39.1805 15.4463L39.1813 15.4471ZM23.5973 16.6336C23.5805 16.6596 23.5625 16.6849 23.5433 16.7095L23.5414 16.712L23.5328 16.7231L23.4959 16.7712C23.4628 16.8145 23.4131 16.88 23.3494 16.9658C23.2219 17.1373 23.0379 17.3896 22.8164 17.7071C22.3728 18.3432 21.7818 19.2364 21.1921 20.2648C19.9859 22.3682 18.8892 24.8618 18.8892 26.854C18.8892 27.7769 19.1672 28.4167 19.5385 28.8795C19.9202 29.355 20.4477 29.7008 21.0258 29.9501C21.3003 30.0685 21.5781 30.1616 21.843 30.2345C21.6681 29.4949 21.4785 28.5528 21.3663 27.5647C21.2409 26.4613 21.2041 25.2381 21.4285 24.1573C21.6488 23.0966 22.1698 21.9577 23.3637 21.3652C24.9513 20.5775 27.638 19.5242 30.0069 18.7975C31.1883 18.4351 32.34 18.1385 33.2612 18.0034C33.7141 17.9371 34.1775 17.8993 34.5865 17.9381C34.9075 17.9686 35.57 18.0807 35.9373 18.6357C38.9157 22.6098 38.9591 26.2505 38.2048 28.9103C37.9869 29.6785 37.7043 30.3596 37.4132 30.9395C37.6593 30.8531 37.9105 30.7548 38.1605 30.6434C39.7714 29.9252 41.1114 28.7805 41.1114 26.854C41.1114 24.5718 40.2113 22.0409 39.2582 20.0201C38.7877 19.0225 38.3165 18.1748 37.9638 17.5776C37.7875 17.2794 37.6415 17.0446 37.5405 16.886C37.4965 16.8169 37.4611 16.7623 37.4355 16.7233L37.4093 16.6975L37.397 16.6855C37.3278 16.6185 37.2171 16.5163 37.0657 16.3905C36.7622 16.1385 36.2978 15.7941 35.6749 15.4473C34.4331 14.7558 32.5615 14.054 30.0611 14.054C27.5679 14.054 25.9364 14.7511 24.9441 15.4042C24.4421 15.7345 24.0933 16.0606 23.8758 16.2951C23.7671 16.4123 23.6917 16.506 23.6468 16.5652C23.6244 16.5947 23.6097 16.6155 23.6023 16.6261L23.5973 16.6336ZM39.2734 15.5642C39.2732 15.564 39.2731 15.5638 38.3309 16.108L39.2734 15.5642ZM38.3309 16.108L39.1813 15.4471C39.1817 15.4475 39.182 15.4479 38.3309 16.108ZM24.1589 30.3772C24.1323 30.2759 24.1045 30.1672 24.076 30.0519C23.8965 29.3277 23.6908 28.3567 23.5763 27.3501C23.4605 26.3313 23.4462 25.338 23.611 24.5443C23.7799 23.7305 24.0885 23.3369 24.4148 23.175C25.8674 22.4542 28.4323 21.4447 30.7069 20.747C31.8471 20.3972 32.8652 20.1411 33.6092 20.0321C33.8907 19.9909 34.097 19.9762 34.2369 19.9764C36.6788 23.3332 36.6535 26.2796 36.0552 28.3894C35.7454 29.4815 35.2761 30.3654 34.8851 30.9745C34.6902 31.278 34.5165 31.5105 34.3952 31.6631C34.3347 31.7393 34.2873 31.7954 34.2572 31.8302C34.2543 31.8335 34.2517 31.8364 34.2492 31.8394C34.2382 31.8518 34.2302 31.8608 34.2254 31.8661L34.2215 31.8705L34.2203 31.8719C34.0894 32.013 34.0055 32.1804 33.9709 32.3555C32.8618 33.1168 31.488 33.5672 30.0003 33.5672C27.4843 33.5672 25.2939 32.279 24.1589 30.3772ZM34.4223 19.9911C34.4214 19.9916 34.4111 19.9902 34.3938 19.9853C34.4145 19.9882 34.4232 19.9907 34.4223 19.9911Z" fill="#006C72"/>
<path fill-rule="evenodd" clip-rule="evenodd" d="M23.2379 38.5C23.0028 38.0666 22.7126 37.5316 22.2222 37.6348C16.2176 38.8988 10 42.5459 10 46.4232V52H50V46.4232C50 43.3692 46.1423 40.4579 41.5697 38.7416L41.5548 38.7131L41.5493 38.7031L41.5123 38.7201C40.2973 38.2673 39.0329 37.899 37.7778 37.6348C37.2191 37.5172 36.6417 38.228 36.3881 38.6732H31.8723C30.887 38.6734 30.3842 38.6733 29.8913 38.6732H29.8632C29.3597 38.6731 28.8561 38.673 27.8488 38.6732H23.3333C23.3023 38.6187 23.2707 38.5604 23.2379 38.5ZM38.2254 39.8566C38.7109 39.9804 39.1943 40.12 39.6714 40.2742C39.6846 40.6254 39.6559 41.0401 39.5936 41.4628C39.5306 41.8898 39.4369 42.2995 39.3327 42.6297C39.3186 42.6744 39.3046 42.7167 39.2907 42.7569H37.7778C37.3569 42.7569 36.9722 42.9767 36.784 43.3246L35.6729 45.3786C35.5957 45.5212 35.5556 45.6785 35.5556 45.8379V47.892C35.5556 48.4592 36.053 48.919 36.6667 48.919H38.8889V46.8649H37.7778V46.0804L38.4644 44.8109H41.5356L42.2222 46.0804V46.8649H41.1111V48.919H43.3333C43.947 48.919 44.4444 48.4592 44.4444 47.892V45.8379C44.4444 45.6785 44.4043 45.5212 44.3271 45.3786L43.216 43.3246C43.0278 42.9767 42.6431 42.7569 42.2222 42.7569H41.5929C41.6751 42.4335 41.7441 42.0878 41.7953 41.7403C41.8261 41.5318 41.8511 41.3185 41.8687 41.1049C42.9519 41.5783 43.9593 42.1207 44.8308 42.7083C46.967 44.1489 47.7778 45.4958 47.7778 46.4232V49.946H12.2222V46.4232C12.2222 45.4958 13.033 44.1489 15.1692 42.7083C16.2428 41.9844 17.5228 41.3291 18.8968 40.787C18.9111 41.105 18.9442 41.4281 18.9903 41.7403C19.0662 42.2546 19.1809 42.765 19.3197 43.2049L19.3289 43.2338C18.3967 43.78 17.7778 44.7422 17.7778 45.8379C17.7778 47.5396 19.2701 48.919 21.1111 48.919C22.9521 48.919 24.4444 47.5396 24.4444 45.8379C24.4444 44.2587 23.159 42.957 21.5023 42.7778C21.4861 42.7316 21.4696 42.6822 21.453 42.6297C21.3488 42.2995 21.2551 41.8898 21.1921 41.4628C21.129 41.0344 21.1003 40.6142 21.1148 40.2599C21.1182 40.1743 21.124 40.0979 21.1313 40.0302C21.2647 39.9923 21.3982 39.9554 21.532 39.9198L21.9919 40.7272H27.8493C28.8791 40.727 29.375 40.7271 29.8773 40.7272C30.3681 40.7273 30.865 40.7274 31.8723 40.7272H37.7296L38.2254 39.8566ZM21.1111 46.88C21.7093 46.88 22.2222 46.4276 22.2222 45.8379C22.2222 45.2482 21.7093 44.7958 21.1111 44.7958C20.5129 44.7958 20 45.2482 20 45.8379C20 46.4276 20.5129 46.88 21.1111 46.88Z" fill="#006C72"/>
</svg>
