<svg width="64" height="65" viewBox="0 0 64 65" fill="none" xmlns="http://www.w3.org/2000/svg">
<rect y="0.526611" width="64" height="64" rx="8" fill="#F4F6F7"/>
<path d="M21.5898 27.5914L22.3143 28.4236L21.5898 27.5914ZM45.39 26.6189L44.6656 27.4512L45.39 26.6189ZM26.3816 20.8842L26.9997 21.8007C27.2502 21.6262 27.4181 21.3537 27.463 21.0485C27.5079 20.7433 27.4258 20.4327 27.2364 20.1915L26.3816 20.8842ZM23.7475 17.5274L23.1581 16.5915C22.8972 16.7611 22.7194 17.0353 22.6688 17.3457C22.6181 17.6563 22.6994 17.9741 22.8925 18.2202L23.7475 17.5274ZM27.4352 15.1297L28.2901 14.437C27.9409 13.9921 27.3176 13.8871 26.8459 14.1938L27.4352 15.1297ZM30.0692 18.4865L29.2143 19.1792C29.5297 19.5812 30.0752 19.7107 30.5333 19.4926L30.0692 18.4865ZM33.0898 17.0478L33.5539 18.0539C33.9379 17.8711 34.1833 17.4788 34.1833 17.0478H33.0898ZM33.0898 13.6378L33.0897 12.5267C32.4859 12.5267 31.9964 13.0241 31.9964 13.6378H33.0898ZM37.796 13.6377H38.8894C38.8894 13.343 38.7742 13.0604 38.5691 12.852C38.364 12.6437 38.0859 12.5266 37.796 12.5266V13.6377ZM37.796 17.0478H36.7025C36.7025 17.4539 36.9206 17.8276 37.2711 18.0226L37.796 17.0478ZM20.4672 28.1148L19.5243 28.6774C19.6765 28.9409 19.9289 29.1291 20.2219 29.1976C20.515 29.2662 20.8228 29.2091 21.0732 29.0397L20.4672 28.1148ZM16.0934 25.1517L15.0191 24.9449C14.9641 25.2399 15.0289 25.5449 15.1988 25.7905C15.3686 26.0362 15.629 26.2015 15.9207 26.2489L16.0934 25.1517ZM17.0726 19.8989L17.3813 18.8331C17.0851 18.7445 16.7658 18.7873 16.5023 18.9509C16.2389 19.1146 16.0558 19.3838 15.9983 19.6922L17.0726 19.8989ZM24.8409 25.8958L25.2465 26.9276C25.7104 26.7394 25.9897 26.2556 25.9252 25.7523L24.8409 25.8958ZM40.7879 25.0125L41.2473 26.0208L40.7879 25.0125ZM31.5718 27.4206L30.5914 26.9285L30.0145 28.1153L31.2648 28.4869L31.5718 27.4206ZM38.2384 20.5097L37.779 19.5014L38.2384 20.5097ZM48.5358 18.9663L49.6285 19.0072L49.6688 17.8943L48.5735 17.8558L48.5358 18.9663ZM48.3446 24.2459L48.3068 25.3564L49.3971 25.3946L49.4372 24.2868L48.3446 24.2459ZM37.0903 28.4532L36.1648 27.8615L37.0903 28.4532ZM35.6252 28.9464L35.197 29.9687L35.6252 28.9464ZM34.3899 39.5164L35.3934 39.0752L34.3899 39.5164ZM34.0911 35.0801L35.1444 35.3782L34.0911 35.0801ZM20.8653 26.7592C18.6732 28.7296 17.8518 31.4213 17.9446 34.2229C18.0366 37.0025 19.023 39.9426 20.5027 42.6028C21.9855 45.2685 24.0017 47.7222 26.2353 49.5211C28.4534 51.3075 30.9869 52.5266 33.4899 52.5266V50.3044C31.6655 50.3044 29.6013 49.3964 27.5937 47.7795C25.6013 46.1748 23.7635 43.9487 22.4065 41.5093C21.0465 39.0643 20.2073 36.4737 20.1302 34.1482C20.054 31.8446 20.7201 29.8566 22.3143 28.4236L20.8653 26.7592ZM33.4899 52.5266C35.9865 52.5266 38.585 51.3138 40.8859 49.5184C43.2043 47.7094 45.3273 45.2281 46.8835 42.4969C49.9414 37.1305 51.0576 30.2297 46.1145 25.7867L44.6656 27.4512C48.3941 30.8025 47.8875 36.3002 44.991 41.3834C43.5701 43.8772 41.6332 46.1335 39.554 47.7559C37.4573 49.3919 35.3206 50.3044 33.4899 50.3044V52.5266ZM46.1145 25.7867C45.4869 25.2226 44.9978 24.9294 44.4634 24.6549C43.948 24.3902 43.4707 24.1788 42.6999 23.7171L41.5891 25.6312C42.4412 26.1418 43.0458 26.4167 43.4768 26.6382C43.889 26.8498 44.2113 27.0428 44.6656 27.4512L46.1145 25.7867ZM32.2885 26.4705C30.6595 25.9286 28.5468 25.3994 26.512 25.2809C24.5284 25.1654 22.351 25.4237 20.8653 26.7592L22.3143 28.4236C23.129 27.6913 24.5545 27.3927 26.3868 27.4995C28.1679 27.6033 30.0844 28.0755 31.608 28.5824L32.2885 26.4705ZM27.2364 20.1915L24.6025 16.8347L22.8925 18.2202L25.5266 21.5769L27.2364 20.1915ZM24.3369 18.4633L28.0245 16.0656L26.8459 14.1938L23.1581 16.5915L24.3369 18.4633ZM26.5803 15.8224L29.2143 19.1792L30.9242 17.7937L28.2901 14.437L26.5803 15.8224ZM30.5333 19.4926L33.5539 18.0539L32.6258 16.0418L29.6051 17.4804L30.5333 19.4926ZM34.1833 17.0478V13.6378H31.9964V17.0478H34.1833ZM33.0898 14.7489L37.796 14.7488V12.5266L33.0897 12.5267L33.0898 14.7489ZM36.7025 13.6377V17.0478H38.8894V13.6377H36.7025ZM37.796 17.0478C37.2711 18.0226 37.2709 18.0225 37.2707 18.0223C37.2706 18.0223 37.2704 18.0222 37.2702 18.0221C37.27 18.0219 37.2697 18.0218 37.2695 18.0217C37.269 18.0214 37.2686 18.0212 37.2684 18.0211C37.2677 18.0206 37.2674 18.0205 37.2674 18.0205C37.2673 18.0204 37.2685 18.0211 37.2707 18.0224C37.2753 18.0251 37.2845 18.0304 37.2977 18.0384C37.3244 18.0544 37.3677 18.0809 37.4247 18.1182C37.5391 18.1928 37.7074 18.3091 37.9065 18.4663C38.3078 18.7831 38.819 19.2538 39.2719 19.8723L41.0262 18.5455C40.4255 17.7253 39.7601 17.1155 39.2482 16.7114C38.9909 16.5083 38.7684 16.3539 38.6061 16.2481C38.525 16.1952 38.4585 16.1541 38.4099 16.125C38.3857 16.1104 38.3659 16.0988 38.3509 16.0902C38.3433 16.0858 38.3371 16.0822 38.3321 16.0794C38.3296 16.078 38.3274 16.0767 38.3254 16.0757C38.3245 16.0751 38.3237 16.0747 38.3229 16.0742C38.3225 16.074 38.3221 16.0738 38.3218 16.0736C38.3216 16.0735 38.3214 16.0734 38.3213 16.0733C38.321 16.0732 38.3207 16.073 37.796 17.0478ZM25.347 24.3697C25.5903 23.4887 26.0194 22.8333 26.3884 22.3979C26.5725 22.1808 26.7387 22.0219 26.8533 21.9214C26.9105 21.8712 26.9542 21.8361 26.9802 21.8158C26.9933 21.8057 27.0018 21.7994 27.0052 21.7968C27.0069 21.7956 27.0074 21.7953 27.0065 21.7959C27.006 21.7963 27.0053 21.7968 27.0041 21.7976C27.0035 21.7979 27.0029 21.7985 27.0022 21.7989C27.0018 21.7992 27.0015 21.7995 27.001 21.7998C27.0008 21.7999 27.0005 21.8002 27.0004 21.8002C27 21.8005 26.9997 21.8007 26.3816 20.8842C25.7634 19.9676 25.763 19.9679 25.7627 19.9682C25.7626 19.9683 25.7623 19.9685 25.7619 19.9686C25.7615 19.9691 25.761 19.9694 25.7604 19.9697C25.7593 19.9705 25.7581 19.9714 25.7568 19.9723C25.7543 19.9741 25.7513 19.9762 25.748 19.9785C25.7415 19.9833 25.7334 19.9891 25.724 19.9959C25.7053 20.0097 25.6811 20.0278 25.652 20.0504C25.594 20.0955 25.5162 20.1585 25.4241 20.2394C25.2398 20.4011 24.9952 20.6365 24.7315 20.9477C24.2048 21.5691 23.5903 22.5064 23.2415 23.7694L25.347 24.3697ZM20.4672 28.1148C21.4101 27.5523 21.4098 27.5519 21.4096 27.5515C21.4096 27.5514 21.4093 27.5509 21.4092 27.5507C21.4089 27.5501 21.4084 27.5495 21.4081 27.5488C21.4073 27.5475 21.4064 27.5461 21.4055 27.5444C21.4036 27.5412 21.4013 27.5373 21.3987 27.5328C21.3934 27.5239 21.3867 27.5127 21.3783 27.4992C21.3618 27.4723 21.3393 27.4363 21.3108 27.3926C21.2537 27.3053 21.1723 27.1864 21.0663 27.0452C20.8548 26.7634 20.5415 26.3878 20.1235 25.9958C19.29 25.2142 18.0072 24.3376 16.2662 24.0546L15.9207 26.2489C17.1173 26.4434 18.0213 27.0484 18.6403 27.6289C18.9486 27.9179 19.1779 28.1936 19.3275 28.3929C19.4021 28.4922 19.4558 28.5712 19.4888 28.6216C19.5052 28.6468 19.5164 28.6648 19.5223 28.6745C19.5253 28.6793 19.5269 28.6821 19.5273 28.6826C19.5275 28.6828 19.5273 28.6826 19.5267 28.6817C19.5265 28.6813 19.5262 28.6807 19.5257 28.6801C19.5255 28.6797 19.5253 28.6793 19.5251 28.6788C19.525 28.6786 19.5248 28.6783 19.5246 28.6782C19.5244 28.6778 19.5243 28.6774 20.4672 28.1148ZM17.1678 25.3585L18.147 20.1057L15.9983 19.6922L15.0191 24.9449L17.1678 25.3585ZM17.0726 19.8989C16.7639 20.9648 16.7637 20.9648 16.7636 20.9647C16.7635 20.9647 16.7634 20.9647 16.7633 20.9647C16.7632 20.9647 16.7633 20.9647 16.7634 20.9647C16.7636 20.9648 16.7643 20.9649 16.7654 20.9654C16.7676 20.9661 16.7716 20.9672 16.7771 20.9689C16.7883 20.9724 16.806 20.9778 16.83 20.9854C16.8778 21.0005 16.9503 21.0238 17.0441 21.0553C17.2317 21.1181 17.5035 21.2129 17.8327 21.3387C18.4935 21.5913 19.3719 21.9635 20.2577 22.4447C21.1501 22.9295 22.0087 23.5027 22.6589 24.1443C23.3137 24.7905 23.6781 25.4264 23.7567 26.0393L25.9252 25.7523C25.759 24.4551 25.0299 23.3863 24.1824 22.5501C23.33 21.7089 22.277 21.0218 21.2887 20.4849C20.2935 19.9444 19.3217 19.5337 18.6026 19.2588C18.2416 19.1208 17.941 19.0158 17.7287 18.9447C17.6224 18.9091 17.538 18.8819 17.479 18.8633C17.4495 18.8539 17.4263 18.8468 17.4099 18.8417C17.4017 18.8393 17.3952 18.8373 17.3904 18.8358C17.388 18.8351 17.3861 18.8345 17.3846 18.8341C17.3838 18.8338 17.3832 18.8336 17.3826 18.8334C17.3824 18.8334 17.3821 18.8333 17.3818 18.8333C17.3816 18.8332 17.3813 18.8331 17.0726 19.8989ZM24.4354 24.8639C23.0224 25.4374 21.8897 26.0118 21.106 26.4456C20.7139 26.6627 20.4084 26.8448 20.1982 26.9747C20.0931 27.0396 20.0118 27.0915 19.9552 27.1281C19.927 27.1464 19.9049 27.1608 19.8893 27.1713C19.8814 27.1765 19.8751 27.1806 19.8705 27.1837C19.8681 27.1854 19.8662 27.1866 19.8647 27.1877C19.8638 27.1882 19.8632 27.1886 19.8626 27.1891C19.8624 27.1892 19.8621 27.1894 19.8619 27.1895C19.8618 27.1896 19.8616 27.1897 19.8615 27.1897C19.8614 27.1898 19.8612 27.1899 20.4672 28.1148C21.0732 29.0397 21.073 29.0398 21.0728 29.0399C21.0728 29.0399 21.0727 29.0401 21.0726 29.0401C21.0725 29.0402 21.0724 29.0403 21.0723 29.0403C21.0722 29.0404 21.0721 29.0405 21.0721 29.0405C21.0722 29.0404 21.0726 29.0401 21.0735 29.0395C21.0751 29.0384 21.0784 29.0362 21.0832 29.0331C21.093 29.0266 21.1088 29.0162 21.1307 29.0019C21.1746 28.9736 21.2428 28.9301 21.3341 28.8736C21.5169 28.7607 21.7923 28.5962 22.152 28.3972C22.8717 27.9988 23.9258 27.4637 25.2465 26.9276L24.4354 24.8639ZM38.0159 29.0448C39.0151 27.4307 40.0724 26.5735 41.2473 26.0208L40.3287 24.0042C38.7532 24.7453 37.3789 25.9004 36.1648 27.8615L38.0159 29.0448ZM31.2648 28.4869C32.6214 28.8903 34.2035 29.5391 35.197 29.9687L36.0534 27.9241C35.0431 27.4871 33.364 26.7957 31.8788 26.3542L31.2648 28.4869ZM37.779 19.5014C34.5793 21.0064 32.4077 23.1918 30.5914 26.9285L32.5522 27.9126C34.1725 24.5793 36.0001 22.7868 38.6977 21.5181L37.779 19.5014ZM48.5735 17.8558C44.4702 17.7119 40.8631 18.0508 37.779 19.5014L38.6977 21.5181C41.3185 20.2854 44.5169 19.9372 48.4981 20.0767L48.5735 17.8558ZM49.4372 24.2868L49.6285 19.0072L47.4431 18.9254L47.2519 24.2051L49.4372 24.2868ZM41.2473 26.0208C42.666 25.3536 44.5425 25.2244 48.3068 25.3564L48.3823 23.1355C44.6868 23.0059 42.2902 23.0816 40.3287 24.0042L41.2473 26.0208ZM36.1648 27.8615C36.1462 27.8916 36.1184 27.9122 36.0915 27.9214C36.0669 27.9298 36.0562 27.9253 36.0534 27.9241L35.197 29.9687C36.2627 30.4297 37.4426 29.9706 38.0159 29.0448L36.1648 27.8615ZM33.3864 39.9576L33.8374 41.0169L35.8445 40.1345L35.3934 39.0752L33.3864 39.9576ZM33.75 40.6514L34.0562 45.2105L36.2379 45.0593L35.9319 40.5001L33.75 40.6514ZM34.967 41.6795L39.6207 41.1305L39.3685 38.9231L34.7149 39.4721L34.967 41.6795ZM35.8762 28.1715L33.3302 33.7689L35.3152 34.7013L37.8612 29.1039L35.8762 28.1715ZM33.2694 33.9369L33.0378 34.7818L35.1444 35.3782L35.376 34.5333L33.2694 33.9369ZM33.8722 33.2227L29.1131 35.4097L30.0142 37.4345L34.7733 35.2475L33.8722 33.2227ZM29.8143 35.3406L25.0724 34.2054L24.571 36.3684L29.3129 37.5036L29.8143 35.3406ZM28.5468 36.0134L26.9297 40.1671L28.9633 40.9845L30.5804 36.8308L28.5468 36.0134ZM35.3934 39.0752C34.8965 37.9081 34.8086 36.6032 35.1444 35.3782L33.0378 34.7818C32.5676 36.4968 32.6906 38.3237 33.3864 39.9576L35.3934 39.0752Z" fill="#006C72"/>
</svg>
