<svg width="35" height="41" viewBox="0 0 35 41" fill="none" xmlns="http://www.w3.org/2000/svg">
<path d="M6.58982 15.5914L7.31433 16.4236L6.58982 15.5914ZM30.39 14.6189L29.6656 15.4512L30.39 14.6189ZM11.3816 8.88417L11.9997 9.80072C12.2502 9.62617 12.4181 9.35372 12.463 9.0485C12.5079 8.74328 12.4258 8.43272 12.2364 8.1915L11.3816 8.88417ZM8.7475 5.52739L8.15813 4.59148C7.89724 4.76111 7.71945 5.03528 7.66882 5.34572C7.61809 5.65628 7.69944 5.97406 7.89254 6.22017L8.7475 5.52739ZM12.4352 3.1297L13.2901 2.43699C12.9409 1.99209 12.3176 1.8871 11.8459 2.19378L12.4352 3.1297ZM15.0692 6.4865L14.2143 7.17917C14.5297 7.58117 15.0752 7.71072 15.5333 7.49261L15.0692 6.4865ZM18.0898 5.04783L18.5539 6.05394C18.9379 5.87106 19.1833 5.47883 19.1833 5.04783H18.0898ZM18.0898 1.63777L18.0897 0.526656C17.4859 0.526667 16.9964 1.02412 16.9964 1.63777H18.0898ZM22.796 1.63772H23.8894C23.8894 1.34303 23.7742 1.06042 23.5691 0.852045C23.364 0.643667 23.0859 0.526611 22.796 0.526611V1.63772ZM22.796 5.04783H21.7025C21.7025 5.45395 21.9206 5.82761 22.2711 6.02261L22.796 5.04783ZM5.46719 16.1148L4.52432 16.6774C4.67652 16.9409 4.92889 17.1291 5.22193 17.1976C5.51497 17.2662 5.82277 17.2091 6.07317 17.0397L5.46719 16.1148ZM1.09344 13.1517L0.0191087 12.9449C-0.0358693 13.2399 0.0289277 13.5449 0.19876 13.7905C0.368604 14.0362 0.629016 14.2015 0.920723 14.2489L1.09344 13.1517ZM2.07264 7.89895L2.38129 6.83306C2.08509 6.7445 1.76581 6.78728 1.50233 6.95095C1.23887 7.11461 1.05578 7.38383 0.998313 7.69217L2.07264 7.89895ZM9.84093 13.8958L10.2465 14.9276C10.7104 14.7394 10.9897 14.2556 10.9252 13.7523L9.84093 13.8958ZM25.7879 13.0125L26.2473 14.0208L25.7879 13.0125ZM16.5718 15.4206L15.5914 14.9285L15.0145 16.1153L16.2648 16.4869L16.5718 15.4206ZM23.2384 8.50972L22.779 7.50139L23.2384 8.50972ZM33.5358 6.96628L34.6285 7.00717L34.6688 5.89428L33.5735 5.85583L33.5358 6.96628ZM33.3446 12.2459L33.3068 13.3564L34.3971 13.3946L34.4372 12.2868L33.3446 12.2459ZM22.0903 16.4532L21.1648 15.8615L22.0903 16.4532ZM20.6252 16.9464L20.197 17.9687L20.6252 16.9464ZM19.3899 27.5164L20.3934 27.0752L19.3899 27.5164ZM19.0911 23.0801L20.1444 23.3782L19.0911 23.0801ZM5.86531 14.7592C3.67319 16.7296 2.8518 19.4213 2.94463 22.2229C3.03659 25.0025 4.02298 27.9426 5.50272 30.6028C6.98553 33.2685 9.00172 35.7222 11.2353 37.5211C13.4534 39.3075 15.9869 40.5266 18.4899 40.5266V38.3044C16.6655 38.3044 14.6013 37.3964 12.5937 35.7795C10.6013 34.1748 8.76346 31.9487 7.40651 29.5093C6.04649 27.0643 5.20728 24.4737 5.13019 22.1482C5.05398 19.8446 5.7201 17.8566 7.31433 16.4236L5.86531 14.7592ZM18.4899 40.5266C20.9865 40.5266 23.585 39.3138 25.8859 37.5184C28.2043 35.7094 30.3273 33.2281 31.8835 30.4969C34.9414 25.1305 36.0576 18.2297 31.1145 13.7867L29.6656 15.4512C33.3941 18.8025 32.8875 24.3002 29.991 29.3834C28.5701 31.8772 26.6332 34.1335 24.554 35.7559C22.4573 37.3919 20.3206 38.3044 18.4899 38.3044V40.5266ZM31.1145 13.7867C30.4869 13.2226 29.9978 12.9294 29.4634 12.6549C28.948 12.3902 28.4707 12.1788 27.6999 11.7171L26.5891 13.6312C27.4412 14.1418 28.0458 14.4167 28.4768 14.6382C28.889 14.8498 29.2113 15.0428 29.6656 15.4512L31.1145 13.7867ZM17.2885 14.4705C15.6595 13.9286 13.5468 13.3994 11.512 13.2809C9.52843 13.1654 7.35096 13.4237 5.86531 14.7592L7.31433 16.4236C8.12905 15.6913 9.55445 15.3927 11.3868 15.4995C13.1679 15.6033 15.0844 16.0755 16.608 16.5824L17.2885 14.4705ZM12.2364 8.1915L9.60245 4.83468L7.89254 6.22017L10.5266 9.57695L12.2364 8.1915ZM9.33686 6.46328L13.0245 4.06562L11.8459 2.19378L8.15813 4.59148L9.33686 6.46328ZM11.5803 3.82242L14.2143 7.17917L15.9242 5.79372L13.2901 2.43699L11.5803 3.82242ZM15.5333 7.49261L18.5539 6.05394L17.6258 4.04178L14.6051 5.48039L15.5333 7.49261ZM19.1833 5.04783V1.63777H16.9964V5.04783H19.1833ZM18.0898 2.74888L22.796 2.74883V0.526611L18.0897 0.526656L18.0898 2.74888ZM21.7025 1.63772V5.04783H23.8894V1.63772H21.7025ZM22.796 5.04783C22.2711 6.02261 22.2709 6.0225 22.2707 6.02228C22.2706 6.02228 22.2704 6.02217 22.2702 6.02206C22.27 6.02194 22.2697 6.02183 22.2695 6.02172C22.269 6.02139 22.2686 6.02117 22.2684 6.02106C22.2677 6.02061 22.2674 6.0205 22.2674 6.0205C22.2673 6.02039 22.2685 6.02106 22.2707 6.02239C22.2753 6.02506 22.2845 6.03039 22.2977 6.03839C22.3244 6.05439 22.3677 6.08095 22.4247 6.11817C22.5391 6.19283 22.7074 6.30906 22.9065 6.46628C23.3078 6.78306 23.819 7.25383 24.2719 7.87228L26.0262 6.5455C25.4255 5.72528 24.7601 5.1155 24.2482 4.71141C23.9909 4.50826 23.7684 4.35393 23.6061 4.24813C23.525 4.19516 23.4585 4.15412 23.4099 4.12499C23.3857 4.11042 23.3659 4.09881 23.3509 4.09017C23.3433 4.08583 23.3371 4.08224 23.3321 4.0794C23.3296 4.07797 23.3274 4.07672 23.3254 4.07567C23.3245 4.07514 23.3237 4.07466 23.3229 4.07422C23.3225 4.074 23.3221 4.0738 23.3218 4.0736C23.3216 4.0735 23.3214 4.07337 23.3213 4.07331C23.321 4.07318 23.3207 4.07305 22.796 5.04783ZM10.347 12.3697C10.5903 11.4887 11.0194 10.8333 11.3884 10.3979C11.5725 10.1808 11.7387 10.0219 11.8533 9.92139C11.9105 9.87117 11.9542 9.83606 11.9802 9.81583C11.9933 9.80572 12.0018 9.79939 12.0052 9.79683C12.0069 9.79561 12.0074 9.79528 12.0065 9.79594C12.006 9.79628 12.0053 9.79683 12.0041 9.79761C12.0035 9.79795 12.0029 9.7985 12.0022 9.79895C12.0018 9.79917 12.0015 9.7995 12.001 9.79983C12.0008 9.79994 12.0005 9.80017 12.0004 9.80017C12 9.8005 11.9997 9.80072 11.3816 8.88417C10.7634 7.96761 10.763 7.96795 10.7627 7.96817C10.7626 7.96828 10.7623 7.9685 10.7619 7.96861C10.7615 7.96906 10.761 7.96939 10.7604 7.96972C10.7593 7.9705 10.7581 7.97139 10.7568 7.97228C10.7543 7.97406 10.7513 7.97617 10.748 7.9785C10.7415 7.98328 10.7334 7.98906 10.724 7.99594C10.7053 8.00972 10.6811 8.02783 10.652 8.05039C10.594 8.0955 10.5162 8.1585 10.4241 8.23939C10.2398 8.40106 9.99522 8.6365 9.73148 8.94772C9.20477 9.56906 8.59026 10.5064 8.24145 11.7694L10.347 12.3697ZM5.46719 16.1148C6.41006 15.5523 6.40984 15.5519 6.40962 15.5515C6.40962 15.5514 6.40929 15.5509 6.40918 15.5507C6.40885 15.5501 6.40842 15.5495 6.40809 15.5488C6.40732 15.5475 6.40645 15.5461 6.40546 15.5444C6.40361 15.5412 6.40131 15.5373 6.39869 15.5328C6.39344 15.5239 6.38666 15.5127 6.37835 15.4992C6.36184 15.4723 6.33931 15.4363 6.31077 15.3926C6.2537 15.3053 6.17234 15.1864 6.06628 15.0452C5.85481 14.7634 5.54154 14.3878 5.12352 13.9958C4.28999 13.2142 3.00717 12.3376 1.26616 12.0546L0.920723 14.2489C2.11728 14.4434 3.02128 15.0484 3.64027 15.6289C3.94862 15.9179 4.17792 16.1936 4.3275 16.3929C4.40207 16.4922 4.45576 16.5712 4.48878 16.6216C4.50518 16.6468 4.51644 16.6648 4.52235 16.6745C4.5253 16.6793 4.52694 16.6821 4.52727 16.6826C4.52749 16.6828 4.52727 16.6826 4.52672 16.6817C4.5265 16.6813 4.52618 16.6807 4.52574 16.6801C4.52552 16.6797 4.5253 16.6793 4.52508 16.6788C4.52497 16.6786 4.52475 16.6783 4.52464 16.6782C4.52443 16.6778 4.52432 16.6774 5.46719 16.1148ZM2.16778 13.3585L3.14703 8.10572L0.998313 7.69217L0.0191087 12.9449L2.16778 13.3585ZM2.07264 7.89895C1.76395 8.96483 1.76374 8.96483 1.76357 8.96472C1.76354 8.96472 1.76339 8.96472 1.76335 8.96472C1.76325 8.96472 1.76327 8.96472 1.76339 8.96472C1.76364 8.96483 1.76432 8.96494 1.76542 8.96539C1.76764 8.96606 1.77157 8.96717 1.77715 8.96894C1.7883 8.97239 1.80605 8.97783 1.82997 8.98539C1.87784 9.0005 1.95034 9.02383 2.04408 9.05528C2.23171 9.11806 2.50354 9.21294 2.83266 9.33872C3.49353 9.59128 4.37189 9.9635 5.25768 10.4447C6.15015 10.9295 7.00871 11.5027 7.65887 12.1443C8.31373 12.7905 8.67806 13.4264 8.75668 14.0393L10.9252 13.7523C10.759 12.4551 10.0299 11.3863 9.18235 10.5501C8.33002 9.70895 7.27704 9.02183 6.28869 8.48495C5.29355 7.94439 4.3217 7.53372 3.60255 7.25883C3.24161 7.12083 2.94102 7.01583 2.72868 6.94472C2.62239 6.90906 2.53798 6.88195 2.47905 6.86328C2.44952 6.85395 2.42634 6.84683 2.40994 6.84172C2.40174 6.83928 2.39518 6.83728 2.39037 6.83583C2.38796 6.83506 2.3861 6.8345 2.38457 6.83406C2.38381 6.83383 2.38315 6.83361 2.3826 6.83339C2.38238 6.83339 2.38206 6.83328 2.38184 6.83328C2.38162 6.83317 2.38129 6.83306 2.07264 7.89895ZM9.43538 12.8639C8.02244 13.4374 6.88975 14.0118 6.10597 14.4456C5.71387 14.6627 5.40836 14.8448 5.1982 14.9747C5.09312 15.0396 5.01177 15.0915 4.95524 15.1281C4.92703 15.1464 4.90494 15.1608 4.88931 15.1713C4.88143 15.1765 4.87509 15.1806 4.8705 15.1837C4.86809 15.1854 4.86623 15.1866 4.8647 15.1877C4.86383 15.1882 4.86317 15.1886 4.86263 15.1891C4.86241 15.1892 4.86208 15.1894 4.86186 15.1895C4.86175 15.1896 4.86164 15.1897 4.86153 15.1897C4.86142 15.1898 4.8612 15.1899 5.46719 16.1148C6.07317 17.0397 6.07295 17.0398 6.07284 17.0399C6.07284 17.0399 6.07273 17.0401 6.07262 17.0401C6.07251 17.0402 6.0724 17.0403 6.07229 17.0403C6.07219 17.0404 6.07208 17.0405 6.07208 17.0405C6.07219 17.0404 6.07262 17.0401 6.0735 17.0395C6.07514 17.0384 6.07842 17.0362 6.08323 17.0331C6.09296 17.0266 6.10882 17.0162 6.13068 17.0019C6.17464 16.9736 6.24276 16.9301 6.33406 16.8736C6.51689 16.7607 6.79232 16.5962 7.15195 16.3972C7.87165 15.9988 8.92583 15.4637 10.2465 14.9276L9.43538 12.8639ZM23.0159 17.0448C24.0151 15.4307 25.0724 14.5735 26.2473 14.0208L25.3287 12.0042C23.7532 12.7453 22.3789 13.9004 21.1648 15.8615L23.0159 17.0448ZM16.2648 16.4869C17.6214 16.8903 19.2035 17.5391 20.197 17.9687L21.0534 15.9241C20.0431 15.4871 18.364 14.7957 16.8788 14.3542L16.2648 16.4869ZM22.779 7.50139C19.5793 9.00639 17.4077 11.1918 15.5914 14.9285L17.5522 15.9126C19.1725 12.5793 21.0001 10.7868 23.6977 9.51806L22.779 7.50139ZM33.5735 5.85583C29.4702 5.71195 25.8631 6.05083 22.779 7.50139L23.6977 9.51806C26.3185 8.28539 29.5169 7.93717 33.4981 8.07672L33.5735 5.85583ZM34.4372 12.2868L34.6285 7.00717L32.4431 6.92539L32.2519 12.2051L34.4372 12.2868ZM26.2473 14.0208C27.666 13.3536 29.5425 13.2244 33.3068 13.3564L33.3823 11.1355C29.6868 11.0059 27.2902 11.0816 25.3287 12.0042L26.2473 14.0208ZM21.1648 15.8615C21.1462 15.8916 21.1184 15.9122 21.0915 15.9214C21.0669 15.9298 21.0562 15.9253 21.0534 15.9241L20.197 17.9687C21.2627 18.4297 22.4426 17.9706 23.0159 17.0448L21.1648 15.8615ZM18.3864 27.9576L18.8374 29.0169L20.8445 28.1345L20.3934 27.0752L18.3864 27.9576ZM18.75 28.6514L19.0562 33.2105L21.2379 33.0593L20.9319 28.5001L18.75 28.6514ZM19.967 29.6795L24.6207 29.1305L24.3685 26.9231L19.7149 27.4721L19.967 29.6795ZM20.8762 16.1715L18.3302 21.7689L20.3152 22.7013L22.8612 17.1039L20.8762 16.1715ZM18.2694 21.9369L18.0378 22.7818L20.1444 23.3782L20.376 22.5333L18.2694 21.9369ZM18.8722 21.2227L14.1131 23.4097L15.0142 25.4345L19.7733 23.2475L18.8722 21.2227ZM14.8143 23.3406L10.0724 22.2054L9.57096 24.3684L14.3129 25.5036L14.8143 23.3406ZM13.5468 24.0134L11.9297 28.1671L13.9633 28.9845L15.5804 24.8308L13.5468 24.0134ZM20.3934 27.0752C19.8965 25.9081 19.8086 24.6032 20.1444 23.3782L18.0378 22.7818C17.5676 24.4968 17.6906 26.3237 18.3864 27.9576L20.3934 27.0752Z" fill="#006C72"/>
</svg>
