<svg width="79" height="91" viewBox="0 0 79 91" fill="none" xmlns="http://www.w3.org/2000/svg">
<path d="M15.3247 34.4224L16.9548 36.2949L15.3247 34.4224ZM68.8751 32.2344L67.2451 34.1069L68.8751 32.2344ZM26.1061 19.3311L27.4969 21.3934C28.0605 21.0006 28.4382 20.3876 28.5393 19.7009C28.6404 19.0141 28.4557 18.3154 28.0295 17.7726L26.1061 19.3311ZM20.1794 11.7784L18.8534 9.67256C18.2664 10.0542 17.8663 10.6711 17.7524 11.3696C17.6383 12.0684 17.8213 12.7834 18.2558 13.3371L20.1794 11.7784ZM28.4768 6.38356L30.4002 4.82496C29.6147 3.82394 28.2121 3.58771 27.1507 4.27774L28.4768 6.38356ZM34.4033 13.9364L32.4799 15.4949C33.1894 16.3994 34.4168 16.6909 35.4474 16.2001L34.4033 13.9364ZM41.1997 10.6994L42.2438 12.9631C43.1078 12.5516 43.6599 11.6691 43.6599 10.6994H41.1997ZM41.1997 3.02671L41.1994 0.526711C39.8409 0.526736 38.7394 1.64601 38.7394 3.02671H41.1997ZM51.7885 3.02661H54.2487C54.2487 2.36356 53.9894 1.72769 53.5281 1.25884C53.0666 0.789987 52.4409 0.526611 51.7885 0.526611V3.02661ZM51.7885 10.6994H49.3283C49.3283 11.6131 49.8188 12.4539 50.6076 12.8926L51.7885 10.6994ZM12.7987 35.6001L10.6773 36.8659C11.0197 37.4589 11.5876 37.8821 12.2469 38.0364C12.9062 38.1906 13.5988 38.0621 14.1622 37.6811L12.7987 35.6001ZM2.9578 28.9331L0.540553 28.4679C0.416853 29.1316 0.562646 29.8179 0.944769 30.3704C1.32692 30.9231 1.91285 31.2951 2.56919 31.4019L2.9578 28.9331ZM5.16099 17.1144L5.85547 14.7161C5.18901 14.5169 4.47063 14.6131 3.87781 14.9814C3.28502 15.3496 2.87307 15.9554 2.74376 16.6491L5.16099 17.1144ZM22.6397 30.6074L23.5522 32.9289C24.596 32.5054 25.2244 31.4169 25.0792 30.2844L22.6397 30.6074ZM58.5204 28.6199L59.554 30.8886L58.5204 28.6199ZM37.7841 34.0381L35.5783 32.9309L34.2803 35.6011L37.0933 36.4374L37.7841 34.0381ZM52.7839 18.4886L51.7504 16.2199L52.7839 18.4886ZM75.9531 15.0159L78.4117 15.1079L78.5024 12.6039L76.038 12.5174L75.9531 15.0159ZM75.5229 26.8951L75.438 29.3936L77.8911 29.4796L77.9814 26.9871L75.5229 26.8951ZM50.2007 36.3614L48.1183 35.0301L50.2007 36.3614ZM46.9042 37.4711L45.9408 39.7714L46.9042 37.4711ZM44.1249 61.2536L46.3826 60.2609L44.1249 61.2536ZM43.4525 51.2719L45.8224 51.9426L43.4525 51.2719ZM13.6945 32.5499C8.76223 36.9834 6.9141 43.0396 7.12298 49.3434C7.32988 55.5974 9.54926 62.2126 12.8787 68.1981C16.215 74.1959 20.7514 79.7166 25.777 83.7641C30.7678 87.7836 36.4681 90.5266 42.0999 90.5266V85.5266C37.995 85.5266 33.3505 83.4836 28.8333 79.8456C24.3505 76.2351 20.2153 71.2264 17.1622 65.7376C14.1022 60.2364 12.2139 54.4076 12.0405 49.1751C11.869 43.9921 13.3678 39.5191 16.9548 36.2949L13.6945 32.5499ZM42.0999 90.5266C47.7173 90.5266 53.5638 87.7979 58.7409 83.7581C63.9573 79.6879 68.7341 74.1049 72.2355 67.9599C79.1158 55.8854 81.6272 40.3586 70.5052 30.3619L67.2451 34.1069C75.6343 41.6474 74.4945 54.0171 67.9773 65.4544C64.7802 71.0654 60.4222 76.1421 55.7441 79.7926C51.0266 83.4736 46.219 85.5266 42.0999 85.5266V90.5266ZM70.5052 30.3619C69.093 29.0926 67.9926 28.4329 66.7903 27.8154C65.6305 27.2196 64.5566 26.7441 62.8224 25.7051L60.323 30.0119C62.2403 31.1609 63.6006 31.7794 64.5704 32.2776C65.4979 32.7539 66.2229 33.1881 67.2451 34.1069L70.5052 30.3619ZM39.3968 31.9004C35.7315 30.6811 30.9779 29.4904 26.3996 29.2239C21.9365 28.9639 17.0372 29.5451 13.6945 32.5499L16.9548 36.2949C18.7879 34.6471 21.9951 33.9754 26.1179 34.2156C30.1254 34.4491 34.4375 35.5116 37.8656 36.6521L39.3968 31.9004ZM28.0295 17.7726L22.1031 10.2198L18.2558 13.3371L24.1825 20.8899L28.0295 17.7726ZM21.5055 13.8841L29.8026 8.48939L27.1507 4.27774L18.8534 9.67256L21.5055 13.8841ZM26.5532 7.94219L32.4799 15.4949L36.3269 12.3776L30.4002 4.82496L26.5532 7.94219ZM35.4474 16.2001L42.2438 12.9631L40.1555 8.43574L33.3591 11.6726L35.4474 16.2001ZM43.6599 10.6994V3.02671H38.7394V10.6994H43.6599ZM41.1997 5.52671L51.7885 5.52661V0.526611L41.1994 0.526711L41.1997 5.52671ZM49.3283 3.02661V10.6994H54.2487V3.02661H49.3283ZM51.7885 10.6994C50.6076 12.8926 50.6071 12.8924 50.6066 12.8919C50.6064 12.8919 50.6059 12.8916 50.6056 12.8914C50.6051 12.8911 50.6044 12.8909 50.6039 12.8906C50.6029 12.8899 50.6019 12.8894 50.6014 12.8891C50.6 12.8881 50.5992 12.8879 50.5992 12.8879C50.599 12.8876 50.6017 12.8891 50.6066 12.8921C50.6169 12.8981 50.6376 12.9101 50.6674 12.9281C50.7274 12.9641 50.8248 13.0239 50.9532 13.1076C51.2106 13.2756 51.5892 13.5371 52.0372 13.8909C52.9401 14.6036 54.0903 15.6629 55.1093 17.0544L59.0565 14.0691C57.7049 12.2236 56.2078 10.8516 55.0559 9.94241C54.477 9.48531 53.9764 9.13809 53.6113 8.90004C53.4287 8.78084 53.2791 8.68851 53.1699 8.62296C53.1153 8.59019 53.0708 8.56406 53.0371 8.54461C53.0201 8.53486 53.0061 8.52679 52.9947 8.52039C52.9891 8.51716 52.9842 8.51436 52.9797 8.51199C52.9778 8.51081 52.9758 8.50971 52.9741 8.50874C52.9731 8.50824 52.9724 8.50779 52.9716 8.50734C52.9711 8.50711 52.9706 8.50681 52.9704 8.50669C52.9699 8.50639 52.9692 8.50609 51.7885 10.6994ZM23.7783 27.1736C24.3257 25.1914 25.2913 23.7166 26.1214 22.7371C26.5357 22.2486 26.9096 21.8911 27.1675 21.6649C27.2961 21.5519 27.3946 21.4729 27.4531 21.4274C27.4824 21.4046 27.5016 21.3904 27.5092 21.3846C27.5131 21.3819 27.5141 21.3811 27.5122 21.3826C27.5112 21.3834 27.5094 21.3846 27.5067 21.3864C27.5055 21.3871 27.504 21.3884 27.5026 21.3894C27.5016 21.3899 27.5008 21.3906 27.4999 21.3914C27.4994 21.3916 27.4986 21.3921 27.4984 21.3921C27.4976 21.3929 27.4969 21.3934 26.1061 19.3311C24.7151 17.2689 24.7144 17.2696 24.7136 17.2701C24.7134 17.2704 24.7127 17.2709 24.7119 17.2711C24.7109 17.2721 24.7097 17.2729 24.7085 17.2736C24.706 17.2754 24.7033 17.2774 24.7004 17.2794C24.6947 17.2834 24.6881 17.2881 24.6807 17.2934C24.6659 17.3041 24.6477 17.3171 24.6265 17.3326C24.5845 17.3636 24.5301 17.4044 24.4647 17.4551C24.334 17.5566 24.1591 17.6984 23.9517 17.8804C23.5372 18.2441 22.9868 18.7739 22.3934 19.4741C21.2083 20.8721 19.8256 22.9811 19.0408 25.8229L23.7783 27.1736ZM12.7987 35.6001C14.9202 34.3344 14.9197 34.3336 14.9192 34.3326C14.9192 34.3324 14.9185 34.3314 14.9182 34.3309C14.9175 34.3294 14.9165 34.3281 14.9158 34.3266C14.914 34.3236 14.9121 34.3204 14.9099 34.3166C14.9057 34.3094 14.9005 34.3006 14.8946 34.2906C14.8828 34.2706 14.8675 34.2454 14.8488 34.2149C14.8117 34.1544 14.761 34.0734 14.6968 33.9751C14.5684 33.7786 14.3853 33.5111 14.1467 33.1934C13.6709 32.5594 12.966 31.7144 12.0255 30.8324C10.15 29.0736 7.2637 27.1014 3.34642 26.4646L2.56919 31.4019C5.26144 31.8394 7.29544 33.2006 8.68818 34.5069C9.38196 35.1571 9.89787 35.7774 10.2344 36.2259C10.4022 36.4491 10.523 36.6269 10.5973 36.7404C10.6342 36.7971 10.6596 36.8376 10.6728 36.8594C10.6795 36.8701 10.6832 36.8764 10.6839 36.8776C10.6844 36.8781 10.6839 36.8776 10.6827 36.8756C10.6822 36.8746 10.6815 36.8734 10.6805 36.8719C10.68 36.8711 10.6795 36.8701 10.679 36.8691C10.6788 36.8686 10.6783 36.8679 10.678 36.8676C10.6775 36.8669 10.6773 36.8659 12.7987 35.6001ZM5.37506 29.3984L7.57837 17.5796L2.74376 16.6491L0.540553 28.4679L5.37506 29.3984ZM5.16099 17.1144C4.46644 19.5126 4.46598 19.5126 4.46558 19.5124C4.46553 19.5124 4.46519 19.5124 4.46509 19.5124C4.46487 19.5124 4.46492 19.5124 4.46519 19.5124C4.46576 19.5126 4.46728 19.5129 4.46976 19.5139C4.47476 19.5154 4.48359 19.5179 4.49614 19.5219C4.52123 19.5296 4.56116 19.5419 4.61499 19.5589C4.7227 19.5929 4.88581 19.6454 5.09673 19.7161C5.51891 19.8574 6.13052 20.0709 6.87105 20.3539C8.35801 20.9221 10.3343 21.7596 12.3274 22.8424C14.3354 23.9331 16.2672 25.2229 17.73 26.6664C19.2035 28.1204 20.0232 29.5511 20.2001 30.9301L25.0792 30.2844C24.7053 27.3656 23.0648 24.9609 21.1579 23.0794C19.2401 21.1869 16.8709 19.6409 14.6471 18.4329C12.408 17.2166 10.2214 16.2926 8.6033 15.6741C7.79118 15.3636 7.11486 15.1274 6.63708 14.9674C6.39795 14.8871 6.20802 14.8261 6.07541 14.7841C6.00899 14.7631 5.95683 14.7471 5.91993 14.7356C5.90147 14.7301 5.88671 14.7256 5.87589 14.7224C5.87047 14.7206 5.86629 14.7194 5.86285 14.7184C5.86113 14.7179 5.85965 14.7174 5.85842 14.7169C5.85793 14.7169 5.85719 14.7166 5.8567 14.7166C5.8562 14.7164 5.85547 14.7161 5.16099 17.1144ZM21.7272 28.2856C18.5481 29.5759 15.9995 30.8684 14.236 31.8444C13.3538 32.3329 12.6664 32.7426 12.1935 33.0349C11.9571 33.1809 11.774 33.2976 11.6469 33.3799C11.5834 33.4211 11.5337 33.4536 11.4985 33.4771C11.4808 33.4889 11.4665 33.4981 11.4562 33.5051C11.4508 33.5089 11.4466 33.5116 11.4431 33.5141C11.4412 33.5151 11.4397 33.5161 11.4385 33.5171C11.438 33.5174 11.4372 33.5179 11.4367 33.5181C11.4365 33.5184 11.4363 33.5186 11.436 33.5186C11.4358 33.5189 11.4353 33.5191 12.7987 35.6001C14.1622 37.6811 14.1617 37.6814 14.1615 37.6816C14.1615 37.6816 14.1612 37.6819 14.161 37.6819C14.1607 37.6821 14.1605 37.6824 14.1602 37.6824C14.16 37.6826 14.1597 37.6829 14.1597 37.6829C14.16 37.6826 14.161 37.6819 14.1629 37.6806C14.1666 37.6781 14.174 37.6731 14.1848 37.6661C14.2067 37.6516 14.2424 37.6281 14.2916 37.5961C14.3905 37.5324 14.5438 37.4344 14.7492 37.3074C15.1606 37.0534 15.7803 36.6831 16.5895 36.2354C18.2088 35.3391 20.5807 34.1351 23.5522 32.9289L21.7272 28.2856ZM52.2832 37.6926C54.5317 34.0609 56.9104 32.1321 59.554 30.8886L57.4871 26.3511C53.9422 28.0186 50.8502 30.6176 48.1183 35.0301L52.2832 37.6926ZM37.0933 36.4374C40.1457 37.3449 43.7054 38.8046 45.9408 39.7714L47.8676 35.1709C45.5946 34.1876 41.8167 32.6321 38.4749 31.6386L37.0933 36.4374ZM51.7504 16.2199C44.551 19.6061 39.665 24.5234 35.5783 32.9309L39.99 35.1451C43.6358 27.6451 47.7478 23.6121 53.8175 20.7574L51.7504 16.2199ZM76.038 12.5174C66.8055 12.1936 58.6894 12.9561 51.7504 16.2199L53.8175 20.7574C59.7141 17.9839 66.9106 17.2004 75.8683 17.5144L76.038 12.5174ZM77.9814 26.9871L78.4117 15.1079L73.4946 14.9239L73.0643 26.8031L77.9814 26.9871ZM59.554 30.8886C62.7461 29.3874 66.9681 29.0966 75.438 29.3936L75.6077 24.3966C67.2929 24.1051 61.9005 24.2754 57.4871 26.3511L59.554 30.8886ZM48.1183 35.0301C48.0765 35.0979 48.014 35.1441 47.9535 35.1649C47.8981 35.1839 47.874 35.1736 47.8676 35.1709L45.9408 39.7714C48.3388 40.8086 50.9934 39.7756 52.2832 37.6926L48.1183 35.0301ZM41.8669 62.2464L42.8817 64.6299L47.3977 62.6444L46.3826 60.2609L41.8669 62.2464ZM42.6851 63.8074L43.374 74.0654L48.2829 73.7251L47.5943 63.4669L42.6851 63.8074ZM45.4234 66.1206L55.8941 64.8854L55.3268 59.9186L44.856 61.1539L45.4234 66.1206ZM47.4691 35.7276L41.7404 48.3219L46.2067 50.4196L51.9354 37.8256L47.4691 35.7276ZM41.6036 48.6999L41.0826 50.6009L45.8224 51.9426L46.3435 50.0416L41.6036 48.6999ZM42.96 47.0929L32.252 52.0136L34.2795 56.5694L44.9874 51.6486L42.96 47.0929ZM33.8298 51.8581L23.1605 49.3039L22.0322 54.1706L32.7015 56.7249L33.8298 51.8581ZM30.9779 53.3719L27.3394 62.7176L31.915 64.5569L35.5534 55.2111L30.9779 53.3719ZM46.3826 60.2609C45.2647 57.6349 45.0669 54.6989 45.8224 51.9426L41.0826 50.6009C40.0247 54.4596 40.3014 58.5701 41.8669 62.2464L46.3826 60.2609Z" fill="#006C72"/>
</svg>
