<svg width="85" height="129" viewBox="0 0 85 129" fill="none" xmlns="http://www.w3.org/2000/svg">
<path fill-rule="evenodd" clip-rule="evenodd" d="M61 15.2234C61 23.631 54.0603 30.4468 45.5 30.4468C36.9397 30.4468 30 23.631 30 15.2234C30 6.81576 36.9397 0 45.5 0C54.0603 0 61 6.81576 61 15.2234ZM54.8 15.2234C54.8 20.2681 50.6364 24.3575 45.5 24.3575C40.3636 24.3575 36.2 20.2681 36.2 15.2234C36.2 10.1788 40.3636 6.08936 45.5 6.08936C50.6364 6.08936 54.8 10.1788 54.8 15.2234Z" fill="#006C72"/>
<path d="M21 119.668V98.3555H27.2356V119.668C27.2356 121.35 28.6315 122.713 30.3534 122.713H30.6237C32.2363 122.713 33.5829 121.512 33.7288 119.944L35.7385 98.3555H42L39.9388 120.495C39.9226 120.669 39.9014 120.842 39.8755 121.013C39.8188 121.388 39.739 121.754 39.6376 122.112C38.5358 126.001 34.8902 128.802 30.6237 128.802H30.3534C25.1875 128.802 21 124.713 21 119.668Z" fill="#006C72"/>
<path d="M51.2711 119.944L49.2614 98.3555H43L45.0612 120.495C45.0774 120.669 45.0986 120.842 45.1244 121.013C45.1812 121.388 45.261 121.754 45.3623 122.112C46.4641 126.001 50.1097 128.802 54.3761 128.802H54.6467C59.8122 128.802 64 124.713 64 119.668V98.3555H57.7645V119.668C57.7645 121.35 56.3683 122.713 54.6467 122.713H54.3761C52.7636 122.713 51.417 121.512 51.2711 119.944Z" fill="#006C72"/>
<path fill-rule="evenodd" clip-rule="evenodd" d="M3.03571 39.4912C1.35909 39.4912 0 40.881 0 42.5956V89.1613C0 90.8759 1.35909 92.2657 3.03571 92.2657H81.9643C83.6409 92.2657 85 90.8759 85 89.1613V42.5956C85 40.881 83.6409 39.4912 81.9643 39.4912H3.03571ZM6.07143 45.7V86.0569H28.8393C28.8393 84.3259 29.6258 82.8197 30.4409 81.7127C31.294 80.5547 32.4202 79.5014 33.6339 78.6114C35.2908 77.3966 37.335 76.3247 39.4643 75.7125V68.9828H37.0357C35.2061 68.9828 32.6446 70.1134 30.185 71.6377C29.033 72.3517 28.0309 73.0704 27.3166 73.6118C26.9608 73.8809 26.6803 74.1035 26.4927 74.2553C26.3989 74.3311 26.3287 74.3891 26.2838 74.4264L26.2365 74.4661L26.2283 74.4726C26.2283 74.4726 26.2292 74.472 24.2857 72.0872C22.3423 69.7024 22.3432 69.7015 22.3432 69.7015L22.3471 69.6984L22.3544 69.6922L22.3772 69.6729L22.454 69.6087C22.5186 69.555 22.61 69.4795 22.7263 69.3855C22.9582 69.198 23.2897 68.9353 23.7026 68.6224C24.5249 67.9997 25.6858 67.1661 27.0382 66.328C29.5876 64.7478 33.4011 62.7741 37.0357 62.7741H39.4643V56.5653H37.9464C36.2188 56.5653 33.9724 57.1837 31.9636 57.9306C31.0007 58.2889 30.1659 58.648 29.5742 58.9172C29.2792 59.051 29.0472 59.1615 28.8927 59.2366C28.8156 59.2739 28.7579 59.3024 28.7218 59.3204L28.6836 59.3397L28.6784 59.3422C28.6784 59.3422 28.679 59.3419 27.3214 56.5653C25.9639 53.7887 25.9648 53.7881 25.9648 53.7881L25.9748 53.7832L25.9945 53.7732L26.0598 53.7403C26.1147 53.713 26.1918 53.6748 26.2896 53.6273C26.4851 53.5326 26.7629 53.4004 27.1083 53.2433C27.7971 52.9304 28.7649 52.5135 29.889 52.0956C32.0544 51.2903 35.1205 50.3565 37.9464 50.3565H39.4643V45.7H6.07143ZM45.5357 68.9828H48.875C51.1484 68.9828 53.485 70.12 55.4416 71.5241C56.3838 72.2002 57.158 72.8807 57.6931 73.3901C57.9594 73.6431 58.1625 73.8502 58.2936 73.9877C58.3589 74.0563 58.4062 74.1072 58.4339 74.1377L58.46 74.1662C58.46 74.1662 58.4578 74.164 60.7143 72.0872C62.9707 70.0104 62.9695 70.0091 62.9695 70.0091L62.965 70.0042L62.9574 69.9955L62.9358 69.9713L62.8687 69.8974C62.8135 69.8368 62.737 69.7543 62.6408 69.6534C62.448 69.4513 62.1742 69.1731 61.8284 68.8441C61.1402 68.1893 60.1496 67.3176 58.929 66.4416C56.5596 64.7413 52.9766 62.7741 48.875 62.7741H45.5357V56.5653H47.8125C49.9202 56.5653 51.9693 57.1896 53.5597 57.8741C54.3402 58.2103 54.9744 58.5453 55.4045 58.7908C55.6188 58.9135 55.7803 59.0122 55.8814 59.0758C55.9321 59.1075 55.9673 59.1305 55.9868 59.1432L55.9959 59.1491C55.9959 59.1491 55.9947 59.1485 57.6786 56.5653C59.3625 53.9822 59.361 53.9812 59.361 53.9812L59.3564 53.9781L59.3485 53.9728L59.3276 53.9589L59.2656 53.9179C59.2156 53.885 59.1479 53.8412 59.0635 53.7881C58.895 53.682 58.6591 53.5382 58.3634 53.3697C57.7742 53.0331 56.9376 52.592 55.9157 52.1521C53.9012 51.2844 51.0173 50.3565 47.8125 50.3565H45.5357V45.7H78.9286V86.0569H56.1607C56.1607 84.312 55.3484 82.7824 54.5339 81.672C53.6723 80.4976 52.5343 79.4154 51.3057 78.5018C49.6871 77.2979 47.6574 76.2027 45.5357 75.6234V68.9828ZM50.0677 86.0569C50.0277 85.9545 49.9244 85.7353 49.6767 85.3972C49.2572 84.8254 48.593 84.1614 47.7345 83.5228C45.9844 82.2215 43.9987 81.4367 42.5971 81.4016C40.9448 81.5444 38.8729 82.4099 37.172 83.6572C36.3244 84.2787 35.6866 84.9105 35.2908 85.4478C35.0613 85.7598 34.9666 85.9619 34.9298 86.0569H50.0677Z" fill="#006C72"/>
</svg>
