<svg width="67" height="67" viewBox="0 0 67 67" fill="none" xmlns="http://www.w3.org/2000/svg">
<path d="M0 0H67V67H0V0Z" fill="url(#paint0_linear_3_393)"/>
<path d="M27.3583 48.8529C26.2729 48.8529 26.4574 48.443 26.083 47.4096L22.8916 36.9065L47.4583 22.332" fill="#CBD9E8"/>
<path d="M27.3584 48.853C28.1959 48.853 28.5658 48.47 29.0334 48.0155L33.5001 43.6723L27.9285 40.3125" fill="#AFC9DE"/>
<path d="M27.9276 40.3146L41.4281 50.289C42.9688 51.139 44.0805 50.6988 44.4643 48.8588L49.9597 22.9624C50.5223 20.7068 49.0999 19.6833 47.6259 20.3525L15.357 32.7953C13.1544 33.6788 13.1675 34.9077 14.9556 35.4552L23.2365 38.04L42.4077 25.9451C43.3128 25.3962 44.1436 25.691 43.4618 26.2963" fill="white"/>
<defs>
<linearGradient id="paint0_linear_3_393" x1="33.5" y1="0" x2="33.5" y2="67" gradientUnits="userSpaceOnUse">
<stop/>
<stop offset="1" stop-color="#006C72"/>
</linearGradient>
</defs>
</svg>
