<svg width="25" height="25" viewBox="0 0 25 25" fill="none" xmlns="http://www.w3.org/2000/svg">
<path d="M9.19332 9.18517L3.32518 3.31442C3.32469 3.31393 3.32427 3.31353 3.32391 3.3132L9.19332 9.18517ZM9.19332 9.18517L9.18695 9.19155L3.31881 3.32079C3.31832 3.32031 3.31791 3.31988 3.31758 3.31953C3.31753 3.31902 3.31748 3.31837 3.31748 3.31761L9.19332 9.18517ZM15.8128 15.8204L21.681 21.6911C21.6815 21.6916 21.6819 21.692 21.6822 21.6924C21.6828 21.6924 21.6834 21.6925 21.6842 21.6925L15.8128 15.8204ZM15.8128 15.8204L15.8192 15.814M15.8128 15.8204L15.8192 15.814M21.6861 21.6924C21.6847 21.6937 21.6843 21.6938 21.6849 21.6934L21.6871 21.6923C21.6879 21.6919 21.6876 21.6922 21.6861 21.6924ZM21.6861 21.6924C21.6864 21.692 21.6869 21.6916 21.6874 21.6911C21.6878 21.6906 21.6882 21.6902 21.6886 21.6899L21.6861 21.6924ZM9.19185 15.8189L9.18548 15.8125L3.31474 21.6807C3.31425 21.6812 3.31384 21.6816 3.31351 21.682L9.19185 15.8189ZM9.19185 15.8189L3.32111 21.6871C3.32062 21.6875 3.32019 21.6879 3.31984 21.6883C3.31933 21.6883 3.31869 21.6884 3.31792 21.6884L9.19185 15.8189ZM15.8207 9.19302L21.6914 3.32488C21.6919 3.32439 21.6923 3.32396 21.6927 3.32361L15.8207 9.19302ZM15.8207 9.19302L15.8143 9.18664L21.6851 3.3185C21.6856 3.31801 21.686 3.31761 21.6863 3.31727L15.8207 9.19302ZM15.8192 15.814L21.6874 21.6848C21.6878 21.6852 21.6882 21.6857 21.6886 21.686L15.8192 15.814ZM21.6914 3.3185C21.6919 3.31899 21.6923 3.31941 21.6927 3.31977L21.6902 3.31727C21.6905 3.31761 21.691 3.31801 21.6914 3.3185ZM12.5031 12.5092L12.4967 12.5028L12.5031 12.4964L12.5095 12.5028L12.5031 12.5092ZM3.316 21.6883C3.31564 21.6879 3.31522 21.6875 3.31473 21.6871L1.65912 23.3419L3.31473 21.6871C3.31424 21.6866 3.31384 21.6861 3.31351 21.6858L3.316 21.6883ZM3.31758 3.31569C3.31791 3.31533 3.31832 3.31491 3.31881 3.31442C3.31929 3.31393 3.31972 3.31353 3.32007 3.3132L3.31758 3.31569Z" stroke="black" stroke-width="4.68175"/>
</svg>
