<svg width="148" height="115" viewBox="0 0 148 115" fill="none" xmlns="http://www.w3.org/2000/svg">
<g clip-path="url(#clip0_3_206)">
<path fill-rule="evenodd" clip-rule="evenodd" d="M98.9773 11.339C99.0695 11.4489 99.1567 11.5686 99.2329 11.6902L99.2366 11.6961L99.2449 11.7096L99.2733 11.7552L99.3738 11.9199C99.4601 12.0616 99.5835 12.2666 99.7385 12.5301C100.049 13.057 100.487 13.8186 101.011 14.7765C102.057 16.6901 103.449 19.3987 104.843 22.5933C107.598 28.9059 110.5 37.4305 110.5 45.5521C110.5 54.7405 104.286 59.8348 98.8234 62.4667C96.0722 63.7922 93.3557 64.5853 91.3491 65.0483C90.9618 65.1377 90.5986 65.2153 90.2641 65.2824C85.8635 69.3571 79.9728 71.8479 73.5 71.8479C65.6902 71.8479 58.7284 68.2223 54.2088 62.5637L54.0645 62.5514C53.5709 62.5073 52.8836 62.4288 52.0659 62.2874C50.4453 62.0077 48.2361 61.4693 45.9877 60.4213C43.7378 59.3721 41.3473 57.7642 39.5158 55.2975C37.6556 52.7925 36.5 49.5711 36.5 45.5521C36.5 37.9529 40.2062 29.3165 43.6086 22.9038C45.347 19.6272 47.0817 16.7939 48.3819 14.7795C49.0328 13.7708 49.577 12.9638 49.9612 12.4051C50.1536 12.1256 50.3059 11.908 50.4117 11.7581L50.5113 11.6178L50.548 11.56C50.6143 11.4564 50.7043 11.3202 50.8193 11.1562C51.0496 10.8282 51.3808 10.3875 51.8226 9.87251C52.706 8.84327 54.0371 7.51101 55.8923 6.19151C59.6349 3.52965 65.401 1 73.6687 1C81.9169 1 88.1973 3.51567 92.4289 6.06229C94.5394 7.33241 96.14 8.60953 97.2281 9.58637C97.7729 10.0753 98.191 10.4908 98.4824 10.7953C98.6282 10.9476 98.7426 11.0723 98.8253 11.1648C98.8666 11.211 98.9002 11.2493 98.9258 11.2789L98.9585 11.3168L98.9702 11.3308L98.9751 11.3365L98.9773 11.339ZM55.7317 14.8977C55.6851 14.9758 55.6352 15.0517 55.5818 15.1253L55.5766 15.1328L55.5525 15.1661L55.4502 15.3104C55.3583 15.4404 55.2205 15.6369 55.0438 15.8941C54.6898 16.4086 54.1792 17.1651 53.5647 18.1175C52.3335 20.0255 50.6935 22.7045 49.0572 25.7889C45.7099 32.0977 42.6667 39.5769 42.6667 45.5521C42.6667 48.3201 43.4381 50.2392 44.4686 51.6272C45.5277 53.0534 46.9914 54.0906 48.5956 54.8385C49.3575 55.1936 50.1283 55.4727 50.8634 55.6914C50.3781 53.4733 49.8521 50.6473 49.5407 47.6837C49.1925 44.3742 49.0905 40.7055 49.7133 37.4637C50.3244 34.2823 51.7702 30.8665 55.0833 29.0895C59.489 26.7268 66.9445 23.5676 73.5182 21.388C76.7967 20.3009 79.9926 19.4113 82.549 19.0062C83.8057 18.8072 85.0918 18.6939 86.2268 18.8103C87.1175 18.9018 88.9558 19.2382 89.9752 20.9028C98.24 32.8222 98.3606 43.7421 96.2673 51.7196C95.6627 54.0237 94.8786 56.0666 94.0708 57.8061C94.7537 57.5467 95.4509 57.2519 96.1446 56.9177C100.615 54.7636 104.333 51.3303 104.333 45.5521C104.333 38.707 101.836 31.116 99.1906 25.0551C97.8848 22.0629 96.5775 19.5203 95.5986 17.7291C95.1095 16.8346 94.7044 16.1305 94.4241 15.6548C94.302 15.4475 94.2037 15.2838 94.1327 15.1667L94.06 15.0893L94.0257 15.0534C93.8337 14.8525 93.5266 14.5461 93.1063 14.1686C92.2642 13.4128 90.9754 12.3796 89.2469 11.3395C85.801 9.26558 80.6074 7.16071 73.6687 7.16071C66.75 7.16071 62.2227 9.2516 59.469 11.2103C58.0759 12.201 57.1081 13.1791 56.5044 13.8825C56.2028 14.2339 55.9934 14.5152 55.8689 14.6926C55.8069 14.7811 55.7659 14.8435 55.7456 14.8753L55.7317 14.8977ZM99.2329 11.6902C99.2323 11.6895 99.232 11.689 96.6173 13.3214L99.2329 11.6902ZM96.6173 13.3214L98.9773 11.339C98.9782 11.3402 98.9791 11.3414 96.6173 13.3214ZM57.29 56.1193C57.2163 55.8156 57.1392 55.4897 57.06 55.1437C56.562 52.9715 55.991 50.0593 55.6734 47.0402C55.3521 43.9845 55.3123 41.0052 55.7696 38.6247C56.2383 36.1838 57.0948 35.0031 58.0001 34.5177C62.0312 32.3556 69.1488 29.3279 75.4607 27.2351C78.6248 26.1859 81.4501 25.418 83.5147 25.0909C84.2957 24.9673 84.8683 24.9233 85.2564 24.9239C92.0327 34.992 91.9627 43.8293 90.3023 50.1573C89.4427 53.4329 88.1403 56.0842 87.0553 57.9108C86.5144 58.8214 86.0325 59.5185 85.6958 59.9762C85.5278 60.2048 85.3964 60.373 85.3129 60.4774C85.3048 60.4872 85.2974 60.4962 85.2907 60.5051C85.2601 60.5424 85.2379 60.5692 85.2247 60.5852L85.2139 60.5984L85.2105 60.6024C84.8473 61.0257 84.6145 61.5278 84.5183 62.053C81.4405 64.3365 77.6283 65.6872 73.5 65.6872C66.5181 65.6872 60.4396 61.8235 57.29 56.1193ZM85.771 24.968C85.7686 24.9695 85.7399 24.9652 85.6918 24.9507C85.7495 24.9593 85.7735 24.9667 85.771 24.968Z" fill="#006C72"/>
<path fill-rule="evenodd" clip-rule="evenodd" d="M54.7351 80.4827C54.0827 79.1827 53.2773 77.5779 51.9167 77.8874C35.2537 81.6788 18 92.6177 18 104.247V120.974H129V104.247C129 95.0869 118.295 86.355 105.606 81.2071L105.565 81.1218L105.549 81.0916L105.447 81.1428C102.075 79.7846 98.5663 78.68 95.0833 77.8874C93.533 77.5347 91.9306 79.6667 91.227 81.002H78.6957C75.9614 81.0026 74.5662 81.0023 73.1985 81.002H73.1204C71.7231 81.0017 70.3257 81.0014 67.5304 81.002H55C54.914 80.8387 54.8261 80.6638 54.7351 80.4827ZM96.3256 84.5515C97.6727 84.9227 99.0143 85.3416 100.338 85.804C100.375 86.8574 100.295 88.1013 100.122 89.3689C99.9473 90.6497 99.6874 91.8784 99.3981 92.8691C99.359 93.0031 99.3201 93.13 99.2816 93.2504H95.0833C93.9154 93.2504 92.8479 93.9096 92.3256 94.9532L89.2423 101.114C89.028 101.542 88.9167 102.013 88.9167 102.491V108.652C88.9167 110.353 90.2971 111.733 92 111.733H98.1667V105.572H95.0833V103.219L96.9888 99.4111H105.511L107.417 103.219V105.572H104.333V111.733H110.5C112.203 111.733 113.583 110.353 113.583 108.652V102.491C113.583 102.013 113.472 101.542 113.258 101.114L110.174 94.9532C109.652 93.9096 108.585 93.2504 107.417 93.2504H105.67C105.898 92.2804 106.09 91.2436 106.232 90.2012C106.317 89.5759 106.387 88.9361 106.436 88.2957C109.441 89.7154 112.237 91.3421 114.655 93.1047C120.583 97.4255 122.833 101.465 122.833 104.247V114.813H24.1667V104.247C24.1667 101.465 26.4166 97.4255 32.3446 93.1047C35.3237 90.9334 38.8757 88.9681 42.6886 87.342C42.7283 88.296 42.8202 89.2651 42.9482 90.2012C43.1588 91.7438 43.477 93.2748 43.8621 94.5941L43.8877 94.6809C41.3007 96.3191 39.5833 99.2051 39.5833 102.491C39.5833 107.595 43.7246 111.733 48.8333 111.733C53.9421 111.733 58.0833 107.595 58.0833 102.491C58.0833 97.7548 54.5162 93.8505 49.919 93.3133C49.874 93.1746 49.828 93.0265 49.7821 92.8691C49.4929 91.8784 49.2329 90.6497 49.0581 89.3689C48.883 88.084 48.8034 86.8239 48.8435 85.7612C48.8531 85.5042 48.8691 85.2751 48.8894 85.0721C49.2594 84.9584 49.6301 84.8478 50.0013 84.7409L51.2775 87.1627H67.5319C70.3895 87.1621 71.7656 87.1624 73.1596 87.1627C74.5215 87.163 75.9004 87.1633 78.6957 87.1627H94.9495L96.3256 84.5515ZM48.8333 105.617C50.4934 105.617 51.9167 104.26 51.9167 102.491C51.9167 100.723 50.4934 99.3658 48.8333 99.3658C47.1733 99.3658 45.75 100.723 45.75 102.491C45.75 104.26 47.1733 105.617 48.8333 105.617Z" fill="#006C72"/>
</g>
<defs>
<clipPath id="clip0_3_206">
<rect width="148" height="115" fill="white"/>
</clipPath>
</defs>
</svg>
