<svg width="64" height="65" viewBox="0 0 64 65" fill="none" xmlns="http://www.w3.org/2000/svg">
<rect y="0.526611" width="64" height="64" rx="8" fill="#F4F6F7"/>
<path fill-rule="evenodd" clip-rule="evenodd" d="M37.9436 17.2543C37.9436 19.8653 35.7884 21.982 33.13 21.982C30.4715 21.982 28.3164 19.8653 28.3164 17.2543C28.3164 14.6433 30.4715 12.5266 33.13 12.5266C35.7884 12.5266 37.9436 14.6433 37.9436 17.2543ZM36.0181 17.2543C36.0181 18.821 34.7251 20.0909 33.13 20.0909C31.5349 20.0909 30.2418 18.821 30.2418 17.2543C30.2418 15.6877 31.5349 14.4177 33.13 14.4177C34.7251 14.4177 36.0181 15.6877 36.0181 17.2543Z" fill="#006C72"/>
<path d="M25.5215 49.69V43.0713H27.458V49.69C27.458 50.2123 27.8915 50.6356 28.4262 50.6356H28.5102C29.0109 50.6356 29.4291 50.2627 29.4744 49.7756L30.0986 43.0713H32.0431L31.403 49.9469C31.398 50.0009 31.3914 50.0546 31.3833 50.1077C31.3657 50.224 31.3409 50.3378 31.3095 50.4488C30.9673 51.6566 29.8351 52.5267 28.5102 52.5267H28.4262C26.8219 52.5267 25.5215 51.2567 25.5215 49.69Z" fill="#006C72"/>
<path d="M34.9226 49.7756L34.2985 43.0713H32.354L32.9941 49.9469C32.9991 50.0009 33.0057 50.0546 33.0138 50.1077C33.0314 50.224 33.0562 50.3378 33.0876 50.4488C33.4298 51.6566 34.562 52.5267 35.8869 52.5267H35.9709C37.5751 52.5267 38.8756 51.2567 38.8756 49.69V43.0713H36.9392V49.69C36.9392 50.2123 36.5056 50.6356 35.9709 50.6356H35.8869C35.3861 50.6356 34.9679 50.2627 34.9226 49.7756Z" fill="#006C72"/>
<path fill-rule="evenodd" clip-rule="evenodd" d="M19.9428 24.7908C19.4221 24.7908 19 25.2224 19 25.7548V40.216C19 40.7485 19.4221 41.1801 19.9428 41.1801H44.4543C44.975 41.1801 45.397 40.7485 45.397 40.216V25.7548C45.397 25.2224 44.975 24.7908 44.4543 24.7908H19.9428ZM20.8855 26.7189V39.2519H27.9561C27.9561 38.7144 28.2004 38.2466 28.4535 37.9028C28.7184 37.5432 29.0682 37.2161 29.4451 36.9397C29.9597 36.5624 30.5945 36.2295 31.2558 36.0394V33.9495H30.5016C29.9334 33.9495 29.1379 34.3006 28.3741 34.774C28.0163 34.9957 27.7051 35.2189 27.4833 35.387C27.3728 35.4706 27.2857 35.5397 27.2274 35.5869C27.1983 35.6104 27.1765 35.6284 27.1625 35.64L27.1478 35.6523L27.1453 35.6544C27.1453 35.6544 27.1456 35.6542 26.542 34.9136C25.9385 34.173 25.9387 34.1727 25.9387 34.1727L25.94 34.1717L25.9422 34.1698L25.9493 34.1638L25.9732 34.1439C25.9932 34.1272 26.0216 34.1038 26.0577 34.0745C26.1297 34.0163 26.2327 33.9347 26.3609 33.8376C26.6163 33.6442 26.9768 33.3853 27.3968 33.125C28.1885 32.6343 29.3728 32.0213 30.5016 32.0213H31.2558V30.0932H30.7844C30.2479 30.0932 29.5502 30.2852 28.9264 30.5172C28.6274 30.6284 28.3681 30.74 28.1844 30.8236C28.0927 30.8651 28.0207 30.8995 27.9727 30.9228C27.9488 30.9343 27.9309 30.9432 27.9197 30.9488L27.9078 30.9548L27.9062 30.9556C27.9062 30.9556 27.9064 30.9555 27.4848 30.0932C27.0632 29.2309 27.0635 29.2307 27.0635 29.2307L27.0666 29.2292L27.0727 29.2261L27.093 29.2159C27.11 29.2074 27.134 29.1955 27.1643 29.1808C27.225 29.1514 27.3113 29.1103 27.4186 29.0615C27.6325 28.9644 27.933 28.8349 28.2821 28.7051C28.9546 28.455 29.9068 28.165 30.7844 28.165H31.2558V26.7189H20.8855ZM33.1413 33.9495H34.1783C34.8843 33.9495 35.61 34.3026 36.2176 34.7387C36.5102 34.9487 36.7506 35.16 36.9168 35.3182C36.9995 35.3968 37.0626 35.4611 37.1033 35.5038C37.1236 35.5251 37.1383 35.5409 37.1468 35.5503L37.1549 35.5592C37.1549 35.5592 37.1543 35.5585 37.855 34.9136C38.5558 34.2686 38.5554 34.2682 38.5554 34.2682L38.554 34.2667L38.5516 34.264L38.5449 34.2565L38.5241 34.2335C38.5069 34.2147 38.4832 34.1891 38.4533 34.1577C38.3934 34.095 38.3084 34.0086 38.201 33.9064C37.9873 33.7031 37.6797 33.4324 37.3006 33.1603C36.5648 32.6323 35.4521 32.0213 34.1783 32.0213H33.1413V30.0932H33.8483C34.5029 30.0932 35.1392 30.2871 35.6332 30.4996C35.8755 30.6041 36.0725 30.7081 36.2061 30.7843C36.2726 30.8224 36.3228 30.8531 36.3542 30.8728C36.3699 30.8827 36.3809 30.8898 36.3869 30.8938L36.3897 30.8956C36.3897 30.8956 36.3893 30.8954 36.9123 30.0932C37.4352 29.291 37.4348 29.2907 37.4348 29.2907L37.4333 29.2897L37.4309 29.2881L37.4244 29.2838L37.4052 29.271C37.3896 29.2608 37.3686 29.2472 37.3424 29.2307C37.29 29.1978 37.2168 29.1531 37.125 29.1008C36.942 28.9963 36.6822 28.8593 36.3648 28.7227C35.7392 28.4532 34.8436 28.165 33.8483 28.165H33.1413V26.7189H43.5115V39.2519H36.4409C36.4409 38.71 36.1886 38.235 35.9357 37.8902C35.6681 37.5255 35.3147 37.1894 34.9332 36.9056C34.4305 36.5318 33.8002 36.1917 33.1413 36.0118V33.9495ZM34.5487 39.2519C34.5363 39.2201 34.5042 39.152 34.4273 39.0471C34.297 38.8695 34.0907 38.6633 33.8241 38.4649C33.2806 38.0608 32.664 37.8171 32.2287 37.8062C31.7156 37.8505 31.0721 38.1193 30.5439 38.5067C30.2807 38.6997 30.0826 38.8959 29.9597 39.0628C29.8884 39.1597 29.859 39.2224 29.8476 39.2519H34.5487Z" fill="#006C72"/>
</svg>
