<svg width="60" height="61" viewBox="0 0 60 61" fill="none" xmlns="http://www.w3.org/2000/svg">
<rect y="0.0263672" width="60" height="60" rx="30" fill="#006C72"/>
<path d="M30 12.5264C26.0218 12.5264 22.2064 14.0073 19.3934 16.6433C16.5803 19.2794 15 22.8547 15 26.5826C15 33.2647 22.7308 41.2876 29.2269 46.8452L30.0231 47.5264L30.7962 46.8236C37.9846 40.3361 45 33.4485 45 26.5826C45 22.8547 43.4196 19.2794 40.6066 16.6433C37.7936 14.0073 33.9782 12.5264 30 12.5264ZM30 44.5529C21.8192 37.3951 17.3077 31.0373 17.3077 26.5826C17.3077 23.4282 18.6449 20.403 21.0252 18.1724C23.4055 15.9419 26.6338 14.6889 30 14.6889C33.3662 14.6889 36.5945 15.9419 38.9748 18.1724C41.3551 20.403 42.6923 23.4282 42.6923 26.5826C42.6923 32.3673 36.5308 38.5736 30 44.5529Z" fill="white"/>
<path d="M30.0002 21.1755C28.8591 21.1755 27.7437 21.4926 26.795 22.0867C25.8462 22.6807 25.1068 23.525 24.6701 24.5129C24.2335 25.5008 24.1192 26.5878 24.3418 27.6365C24.5644 28.6852 25.1139 29.6485 25.9207 30.4046C26.7276 31.1606 27.7555 31.6755 28.8747 31.8841C29.9938 32.0927 31.1538 31.9857 32.208 31.5765C33.2622 31.1673 34.1632 30.4744 34.7971 29.5853C35.4311 28.6963 35.7694 27.651 35.7694 26.5818C35.7694 25.148 35.1616 23.7729 34.0797 22.759C32.9977 21.7451 31.5303 21.1755 30.0002 21.1755ZM30.0002 29.8255C29.3156 29.8255 28.6463 29.6353 28.0771 29.2788C27.5078 28.9224 27.0641 28.4158 26.8021 27.8231C26.5401 27.2304 26.4716 26.5782 26.6052 25.9489C26.7387 25.3197 27.0684 24.7417 27.5525 24.2881C28.0366 23.8345 28.6534 23.5255 29.3249 23.4004C29.9963 23.2752 30.6923 23.3394 31.3249 23.585C31.9574 23.8305 32.498 24.2462 32.8784 24.7796C33.2587 25.3131 33.4617 25.9402 33.4617 26.5818C33.4617 27.4421 33.097 28.2671 32.4479 28.8755C31.7987 29.4838 30.9182 29.8255 30.0002 29.8255Z" fill="white"/>
</svg>
