<svg width="60" height="61" viewBox="0 0 60 61" fill="none" xmlns="http://www.w3.org/2000/svg">
<rect y="0.526367" width="60" height="60" rx="30" fill="#006C72"/>
<path d="M43.125 15.5264H16.875C15.7147 15.5264 14.6019 16.0761 13.7814 17.0545C12.9609 18.033 12.5 19.36 12.5 20.7438V40.309C12.5 41.6927 12.9609 43.0198 13.7814 43.9982C14.6019 44.9767 15.7147 45.5264 16.875 45.5264H43.125C44.2853 45.5264 45.3981 44.9767 46.2186 43.9982C47.0391 43.0198 47.5 41.6927 47.5 40.309V20.7438C47.5 19.36 47.0391 18.033 46.2186 17.0545C45.3981 16.0761 44.2853 15.5264 43.125 15.5264ZM45.3125 40.309C45.3125 41.0008 45.082 41.6644 44.6718 42.1536C44.2616 42.6428 43.7052 42.9177 43.125 42.9177H16.875C16.2948 42.9177 15.7384 42.6428 15.3282 42.1536C14.918 41.6644 14.6875 41.0008 14.6875 40.309V20.7438C14.6875 20.0519 14.918 19.3884 15.3282 18.8991C15.7384 18.4099 16.2948 18.1351 16.875 18.1351H43.125C43.7052 18.1351 44.2616 18.4099 44.6718 18.8991C45.082 19.3884 45.3125 20.0519 45.3125 20.7438V40.309Z" fill="white"/>
<path d="M42.8733 22.5299C42.7823 22.3968 42.6701 22.2866 42.5433 22.2054C42.4164 22.1241 42.2773 22.0736 42.134 22.0566C41.9907 22.0397 41.8461 22.0566 41.7083 22.1065C41.5705 22.1564 41.4423 22.2382 41.3311 22.3473L29.9999 33.4081L18.6577 22.3473C18.5486 22.2256 18.4198 22.1319 18.2791 22.0719C18.1385 22.0118 17.989 21.9868 17.84 21.9983C17.6909 22.0098 17.5454 22.0576 17.4125 22.1388C17.2795 22.2199 17.1619 22.3327 17.0668 22.4701C16.9718 22.6075 16.9014 22.7667 16.8599 22.9378C16.8184 23.1089 16.8068 23.2884 16.8257 23.4651C16.8446 23.6418 16.8937 23.812 16.9698 23.9652C17.046 24.1184 17.1477 24.2514 17.2686 24.356L29.2999 36.0951C29.4967 36.2895 29.7443 36.3957 29.9999 36.3951C30.2517 36.3927 30.4951 36.2867 30.689 36.0951L42.7202 24.356C42.9423 24.137 43.0829 23.8224 43.1116 23.4805C43.1403 23.1385 43.0547 22.7969 42.8733 22.5299Z" fill="white"/>
<path d="M38.4214 32.8607C38.2165 32.6178 37.9392 32.4814 37.6503 32.4814C37.3613 32.4814 37.0841 32.6178 36.8792 32.8607C36.7767 32.982 36.6953 33.1263 36.6398 33.2852C36.5842 33.4441 36.5557 33.6146 36.5557 33.7868C36.5557 33.959 36.5842 34.1295 36.6398 34.2884C36.6953 34.4474 36.7767 34.5916 36.8792 34.7129L41.2542 39.9303C41.3562 40.0511 41.4771 40.1467 41.6101 40.2117C41.743 40.2767 41.8854 40.3099 42.0292 40.3093C42.1729 40.3087 42.3151 40.2743 42.4477 40.2082C42.5802 40.142 42.7006 40.0454 42.8019 39.9238C42.9031 39.8022 42.9833 39.658 43.0378 39.4994C43.0924 39.3408 43.1202 39.171 43.1197 38.9996C43.1191 38.8282 43.0903 38.6586 43.0349 38.5005C42.9794 38.3424 42.8984 38.1989 42.7964 38.0781L38.4214 32.8607Z" fill="white"/>
<path d="M21.6143 32.8607L17.2393 38.0781C17.0333 38.322 16.917 38.6535 16.916 38.9996C16.915 39.3457 17.0293 39.6782 17.2338 39.9238C17.4383 40.1694 17.7163 40.3081 18.0065 40.3093C18.2968 40.3105 18.5755 40.1742 18.7815 39.9303L23.1565 34.7129C23.259 34.5916 23.3404 34.4474 23.3959 34.2884C23.4514 34.1295 23.48 33.959 23.48 33.7868C23.48 33.6146 23.4514 33.4441 23.3959 33.2852C23.3404 33.1263 23.259 32.982 23.1565 32.8607C22.9516 32.6178 22.6743 32.4814 22.3854 32.4814C22.0964 32.4814 21.8192 32.6178 21.6143 32.8607Z" fill="white"/>
</svg>
