<svg width="36" height="45" viewBox="0 0 36 45" fill="none" xmlns="http://www.w3.org/2000/svg">
<path d="M34.5 7.08949V43.4274C34.5 44.0193 34.0183 44.5 33.434 44.5H4.56596C3.98167 44.5 3.5 44.0193 3.5 43.4274V1.57255C3.5 0.98067 3.98167 0.5 4.56596 0.5H27.9273L34.5 7.08949Z" fill="white" stroke="black"/>
<path d="M33.9895 44.5C34.1781 44.1862 34.2865 43.8186 34.2865 43.4274V6.88275V6.67771L34.1426 6.5317L28.1952 0.5H29.0043L35.5 7.0878V43.4274C35.5 44.024 35.0206 44.5 34.4494 44.5H33.9895Z" fill="#E5E5E5" stroke="black"/>
<path d="M28.3097 22.5028H9.52567C8.89495 22.5028 8.37891 21.9792 8.37891 21.3393C8.37891 20.6994 8.89495 20.1758 9.52567 20.1758H28.3097C28.9405 20.1758 29.4565 20.6994 29.4565 21.3393C29.4565 21.9909 28.9519 22.5028 28.3097 22.5028Z" fill="#CECECE"/>
<path d="M28.3097 28.4716H9.52567C8.89495 28.4716 8.37891 27.948 8.37891 27.308C8.37891 26.6681 8.89495 26.1445 9.52567 26.1445H28.3097C28.9405 26.1445 29.4565 26.6681 29.4565 27.308C29.4565 27.9596 28.9519 28.4716 28.3097 28.4716Z" fill="#CECECE"/>
<path d="M28.3097 34.4403H9.52567C8.89495 34.4403 8.37891 33.9167 8.37891 33.2768C8.37891 32.6369 8.89495 32.1133 9.52567 32.1133H28.3097C28.9405 32.1133 29.4565 32.6369 29.4565 33.2768C29.4565 33.9284 28.9519 34.4403 28.3097 34.4403Z" fill="#CECECE"/>
<path d="M16.1047 16H0V8.96552C0 8.43887 0.395343 8 0.895343 8H16.1047C16.593 8 17 8.42633 17 8.96552V15.0345C17 15.5611 16.6047 16 16.1047 16Z" fill="#006C72"/>
<path d="M17 14.9091V15.0345C17 15.5611 16.6047 16 16.1047 16H0V8.96552C0 8.43887 0.395343 8 0.895343 8H1.34883V10.5078C1.34883 12.9404 3.17442 14.9216 5.44186 14.9216H17V14.9091Z" fill="#006C72"/>
<path d="M0 16.4521L2.6605 19.5238V16.4521H0Z" fill="#006C72"/>
<path d="M4.29909 14.1482V14.9277H1.90234V14.1482H2.48719V11.0881H1.90234V10.3086H4.29909C4.86101 10.3086 5.28531 10.4366 5.59494 10.7042C5.90457 10.9718 6.05365 11.3325 6.05365 11.7746C6.05365 12.0306 5.99631 12.2633 5.8931 12.4727C5.78989 12.6822 5.65228 12.8451 5.48026 12.9498C5.30825 13.0661 5.12476 13.1359 4.90688 13.1825C4.68899 13.229 4.42524 13.2406 4.10414 13.2406H3.66837V14.1366H4.29909V14.1482ZM3.66837 12.4727H3.84039C4.24175 12.4727 4.50551 12.4029 4.62019 12.2749C4.73486 12.1469 4.7922 11.9724 4.7922 11.7746C4.7922 11.6117 4.74633 11.4605 4.66605 11.3441C4.58578 11.2278 4.49404 11.158 4.39083 11.1231C4.28762 11.0998 4.11561 11.0765 3.87479 11.0765H3.6569V12.4727H3.66837Z" fill="white"/>
<path d="M6.33008 14.9277V14.1482H7.01814V11.0881H6.33008V10.3086H8.48601C8.94472 10.3086 9.30021 10.3319 9.5869 10.39C9.86213 10.4482 10.1259 10.5762 10.3782 10.7624C10.6305 10.9602 10.8369 11.2161 10.986 11.5419C11.135 11.8677 11.2153 12.2284 11.2153 12.624C11.2153 12.9498 11.158 13.2523 11.0548 13.5432C10.9516 13.834 10.8139 14.0667 10.6534 14.2529C10.4928 14.4274 10.3094 14.5787 10.08 14.6834C9.86213 14.7881 9.65571 14.8579 9.47223 14.8928C9.28874 14.9277 9.00205 14.9394 8.61215 14.9394H6.33008V14.9277ZM8.21078 14.1482H8.49747C8.8415 14.1482 9.11673 14.1017 9.32315 14.0086C9.52957 13.9155 9.69012 13.7526 9.80479 13.5315C9.93094 13.2988 9.98827 13.0079 9.98827 12.6356C9.98827 12.2866 9.93094 11.9841 9.80479 11.7397C9.67865 11.4954 9.5181 11.3209 9.30021 11.2278C9.09379 11.1347 8.81857 11.0881 8.49747 11.0881H8.21078V14.1482Z" fill="white"/>
<path d="M11.7432 14.9277V14.1482H12.3968V11.0881H11.7432V10.3086H15.8257V11.7397H14.9541V11.0998H13.5895V12.1702H14.5757V12.9498H13.5895V14.1482H14.289V14.9277H11.7432Z" fill="white"/>
<path d="M14.1396 18.6163H2.67188V16.4521H15.94V16.8012C15.9285 17.8018 15.1258 18.6163 14.1396 18.6163Z" fill="#E5E5E5"/>
</svg>
