<svg width="60" height="61" viewBox="0 0 60 61" fill="none" xmlns="http://www.w3.org/2000/svg">
<rect y="0.526367" width="60" height="60" rx="30" fill="#006C72"/>
<path d="M38.2842 35.5068C38.0831 35.282 37.8342 35.1017 37.5545 34.9781C37.2748 34.8545 36.9708 34.7906 36.6633 34.7906C36.3557 34.7906 36.0518 34.8545 35.7721 34.9781C35.4924 35.1017 35.2435 35.282 35.0424 35.5068C34.285 36.2297 33.5277 36.9614 32.7796 37.7021C32.7092 37.7945 32.6047 37.8573 32.4877 37.8772C32.3708 37.8971 32.2504 37.8728 32.1515 37.8092C31.662 37.5504 31.1355 37.3451 30.6645 37.0596C28.503 35.706 26.587 34.0176 24.9936 32.0623C24.1617 31.1146 23.4743 30.0568 22.9524 28.9211C22.8957 28.8269 22.8766 28.7159 22.8987 28.6091C22.9208 28.5022 22.9826 28.4069 23.0725 28.341C23.8299 27.6271 24.5687 26.9043 25.3168 26.1726C25.561 25.9766 25.7575 25.7311 25.8924 25.4535C26.0272 25.1758 26.0971 24.873 26.0971 24.5663C26.0971 24.2596 26.0272 23.9567 25.8924 23.6791C25.7575 23.4015 25.561 23.1559 25.3168 22.96L23.5343 21.2377C22.9247 20.6487 22.3152 20.0508 21.6871 19.4529C21.4843 19.2308 21.2349 19.0528 20.9554 18.9309C20.6759 18.809 20.3728 18.746 20.0662 18.746C19.7596 18.746 19.4564 18.809 19.177 18.9309C18.8975 19.0528 18.6481 19.2308 18.4453 19.4529C17.6787 20.1758 16.949 20.9254 16.164 21.6393C15.4728 22.2691 15.0593 23.132 15.0095 24.0487C14.9437 25.5521 15.2212 27.0511 15.8222 28.4392C16.9742 31.3249 18.6334 33.9967 20.7266 36.3367C23.4816 39.5332 26.9105 42.1252 30.7846 43.9398C32.5061 44.8108 34.39 45.3417 36.3262 45.5015C36.9748 45.5719 37.6314 45.4921 38.2417 45.2686C38.852 45.0452 39.3985 44.6845 39.8359 44.2164C40.4824 43.5115 41.212 42.8689 41.9047 42.1997C42.1443 42.0028 42.3367 41.758 42.4686 41.4822C42.6005 41.2064 42.6689 40.9061 42.6689 40.6023C42.6689 40.2985 42.6005 39.9983 42.4686 39.7224C42.3367 39.4466 42.1443 39.2018 41.9047 39.005C40.7102 37.8389 39.5034 36.6729 38.2842 35.5068Z" fill="white"/>
<path d="M44.9086 27.6209C42.5038 22.1933 38.0144 17.8781 32.3846 15.5827C32.1578 15.5009 31.9069 15.5084 31.6858 15.6035C31.4648 15.6987 31.2912 15.8738 31.2024 16.0914C31.154 16.2002 31.1285 16.3173 31.1275 16.4358C31.1264 16.5542 31.1498 16.6717 31.1962 16.7813C31.2426 16.891 31.3112 16.9906 31.3979 17.0744C31.4846 17.1582 31.5876 17.2244 31.7011 17.2693C36.8907 19.3877 41.0287 23.3666 43.2461 28.3705C43.3453 28.5827 43.5263 28.7491 43.7506 28.8341C43.9749 28.9191 44.2248 28.9161 44.4468 28.8256C44.5605 28.7775 44.663 28.7078 44.7482 28.6206C44.8333 28.5334 44.8995 28.4305 44.9426 28.318C44.9857 28.2056 45.0049 28.0859 44.999 27.9661C44.9932 27.8464 44.9624 27.7289 44.9086 27.6209Z" fill="white"/>
<path d="M31.2204 22.116C34.366 23.3961 36.8755 25.8048 38.2213 28.8356C38.2927 28.9851 38.4056 29.1126 38.5475 29.2039C38.6893 29.2953 38.8545 29.3469 39.0248 29.3532C39.1495 29.3522 39.2725 29.3248 39.385 29.2728C39.5974 29.1723 39.7618 28.9969 39.8443 28.7827C39.9267 28.5685 39.9211 28.3319 39.8283 28.1217C38.3029 24.6807 35.4555 21.9456 31.8854 20.4918C31.6655 20.4164 31.4243 20.4242 31.2101 20.5136C30.996 20.603 30.8247 20.7674 30.7309 20.9737C30.644 21.1883 30.6465 21.4271 30.7377 21.64C30.829 21.8529 31.0019 22.0235 31.2204 22.116Z" fill="white"/>
</svg>
