<svg width="80" height="81" viewBox="0 0 80 81" fill="none" xmlns="http://www.w3.org/2000/svg">
<path d="M25.3199 8.1153C8.08081 23.0004 0 38.8458 0 53.0106C0 64.5345 9.69697 72.9374 19.3939 72.9374C28.0135 72.9374 35.0168 66.6953 35.0168 59.0127C35.0168 49.1693 26.936 44.1276 15.0842 44.1276C15.0842 32.3636 19.1246 25.4012 31.7845 13.8773L25.3199 8.1153ZM70.303 8.1153C53.064 23.0004 44.9832 38.8458 44.9832 53.0106C44.9832 64.5345 54.6801 72.9374 64.3771 72.9374C72.9966 72.9374 80 66.6953 80 59.0127C80 49.1693 71.9192 44.1276 60.0673 44.1276C60.0673 32.3636 64.1077 25.4012 76.7677 13.8773L70.303 8.1153Z" fill="#006C72"/>
</svg>
